<svg xmlns="http://www.w3.org/2000/svg" xmlns:v="https://svgstorm.com"
viewBox = "0 0 2369 422"
width="2369"
height="422">
<g fill="None" fill-opacity="0.0" stroke="#FAFAF5" stroke-opacity="1.00" stroke-width="0.3"><path d="
M 0.00 422.00 
L 2369.00 422.00
L 2369.00 0.00
L 0.00 0.00
L 0.00 422.00
M 1157.00 55.00 
C 1172.68 72.41 1164.38 97.21 1157.00 116.00
C 1147.76 99.50 1140.36 71.36 1157.00 55.00
M 1145.00 113.00 
C 1133.15 102.60 1113.70 93.45 1100.00 106.00
C 1101.57 77.72 1147.82 89.35 1145.00 113.00
M 1213.00 106.00 
C 1198.21 92.95 1178.22 103.80 1166.00 115.00
C 1166.55 91.37 1209.88 77.18 1213.00 106.00
M 1051.00 105.00 
C 1019.58 112.83 1009.50 155.34 1031.00 178.00
C 1009.21 168.91 993.40 156.11 972.92 143.08 C 952.43 130.05 921.25 126.24 899.00 139.00
C 932.72 109.12 975.32 137.43 1005.00 158.00
C 1002.28 151.98 995.72 143.94 994.07 137.93 C 992.43 131.91 990.64 115.08 1000.03 115.03 C 1009.41 114.97 1002.61 133.51 1004.00 140.00 C 1005.39 146.49 1008.09 156.10 1014.00 161.00
C 1012.97 149.16 1012.24 132.70 1020.25 122.25 C 1028.27 111.81 1038.79 104.15 1051.00 105.00
M 1299.00 163.00 
C 1303.45 156.92 1308.32 147.86 1309.98 140.98 C 1311.63 134.09 1303.66 114.63 1314.01 115.01 C 1324.36 115.39 1320.92 132.98 1319.07 139.07 C 1317.22 145.17 1310.48 154.77 1306.00 160.00
C 1337.71 138.14 1384.61 107.84 1420.00 140.00
C 1397.36 125.92 1365.11 129.87 1343.31 142.31 C 1321.50 154.74 1305.24 169.24 1282.00 178.00
C 1304.42 155.34 1293.15 112.48 1262.00 105.00
C 1274.92 103.39 1284.08 111.88 1292.77 122.23 C 1301.46 132.58 1300.55 150.98 1299.00 163.00
M 1186.00 166.00 
C 1199.86 186.73 1221.51 203.06 1247.67 199.67 C 1273.83 196.28 1294.80 184.88 1316.70 171.70 C 1338.59 158.51 1359.76 144.45 1386.00 144.00 C 1412.24 143.55 1436.00 164.33 1436.00 191.00
C 1438.37 198.82 1448.62 201.63 1454.75 207.25 C 1460.87 212.88 1472.47 214.92 1481.00 217.00 C 1489.53 219.08 1502.99 217.52 1510.70 212.69 C 1518.40 207.87 1525.12 201.91 1526.99 192.99 C 1528.87 184.08 1528.54 170.31 1517.00 169.00
C 1528.83 186.46 1501.16 198.40 1496.08 179.92 C 1490.99 161.45 1510.70 152.80 1525.68 157.32 C 1540.65 161.84 1547.16 181.23 1543.67 195.67 C 1540.18 210.11 1530.70 219.07 1517.32 225.32 C 1503.94 231.57 1482.66 229.15 1469.32 223.68 C 1455.98 218.21 1445.87 210.15 1435.00 201.00
C 1430.94 218.18 1417.09 230.92 1399.00 232.00 C 1380.91 233.08 1360.57 220.20 1366.98 198.98 C 1373.38 177.75 1408.65 189.20 1394.00 210.00
C 1403.62 211.18 1410.47 204.06 1412.33 195.33 C 1414.18 186.60 1408.67 178.79 1401.75 173.25 C 1394.83 167.71 1383.18 166.57 1374.99 168.99 C 1366.80 171.41 1359.12 175.39 1352.92 180.92 C 1346.71 186.45 1341.68 190.97 1336.25 197.25 C 1330.82 203.53 1326.73 209.77 1321.70 216.70 C 1316.66 223.63 1311.74 226.45 1305.75 233.75 C 1299.76 241.06 1290.89 240.04 1289.00 229.00
C 1301.89 222.50 1313.26 211.72 1322.00 200.00
C 1303.88 209.12 1286.40 221.39 1266.00 225.00
C 1286.27 233.56 1300.35 257.59 1295.22 279.22 C 1290.09 300.85 1275.12 316.13 1255.00 324.00
C 1246.78 327.89 1238.64 328.00 1229.00 328.00
C 1225.03 328.00 1221.70 327.56 1218.00 327.00
C 1199.29 324.15 1183.55 314.53 1172.00 299.00
C 1168.95 294.90 1167.18 290.41 1165.00 286.00
C 1162.63 281.20 1160.89 277.62 1160.00 272.00
C 1159.61 269.56 1159.47 267.42 1159.00 265.00
C 1157.56 257.53 1158.32 250.11 1160.00 243.00
C 1161.72 229.81 1168.92 218.20 1180.00 210.00
C 1164.76 193.86 1170.81 170.27 1164.00 151.00
C 1158.06 140.89 1150.43 145.82 1147.00 155.00
C 1142.46 172.53 1148.94 195.10 1133.00 208.00
C 1141.60 218.95 1153.20 229.88 1153.00 245.00
C 1153.95 251.64 1153.90 259.43 1153.00 266.00
C 1152.99 267.32 1153.09 268.68 1153.00 270.00
C 1152.64 275.10 1150.79 279.70 1149.00 284.00
C 1147.19 288.35 1145.10 292.81 1143.00 297.00
C 1139.35 304.30 1129.39 313.54 1122.00 317.00
C 1118.85 318.47 1115.26 319.71 1112.00 321.00
C 1108.01 322.59 1103.46 324.95 1099.00 326.00
C 1098.53 326.11 1098.00 326.00 1098.00 326.00
C 1094.13 331.05 1084.73 326.51 1079.00 328.00 C 1073.27 329.49 1065.79 326.77 1061.00 325.00
C 1047.32 319.95 1036.31 313.36 1027.25 300.75 C 1018.19 288.14 1015.15 270.12 1018.98 254.98 C 1022.81 239.83 1036.71 232.06 1048.00 225.00
C 1026.87 221.32 1008.54 208.97 991.00 197.00
C 998.12 206.75 1007.73 218.21 1018.08 224.92 C 1028.43 231.63 1021.99 230.85 1019.00 240.00
C 1000.40 230.53 993.09 213.35 980.70 197.30 C 968.30 181.26 950.08 166.42 928.00 168.00 C 905.92 169.58 894.84 210.08 924.00 210.00
C 910.10 188.78 944.39 178.09 950.98 199.03 C 957.56 219.96 936.28 234.58 918.00 233.00 C 899.72 231.42 887.13 216.02 882.00 200.00
C 879.00 212.13 863.56 214.57 854.31 221.31 C 845.05 228.04 826.86 231.33 814.78 229.22 C 802.70 227.11 791.58 221.62 783.25 211.75 C 774.92 201.88 771.82 186.26 776.32 174.32 C 780.82 162.38 793.20 153.14 806.00 155.00 C 818.80 156.86 829.09 171.84 820.69 184.69 C 812.30 197.55 789.99 183.47 801.00 169.00
C 778.67 182.77 797.91 215.14 820.67 217.33 C 843.44 219.51 866.28 209.27 882.00 192.00
C 882.00 171.72 894.89 154.10 914.08 147.08 C 933.26 140.05 958.10 146.52 975.08 156.92 C 992.05 167.33 1005.47 176.29 1023.23 185.77 C 1040.99 195.25 1063.85 202.23 1084.67 198.67 C 1105.49 195.11 1116.29 180.75 1128.00 165.00
C 1128.27 163.98 1129.40 163.25 1129.00 162.00
C 1121.64 166.06 1116.57 170.76 1108.77 174.77 C 1100.97 178.78 1093.93 182.14 1085.32 185.32 C 1076.71 188.50 1064.41 187.09 1055.98 184.02 C 1047.54 180.96 1043.24 176.23 1038.08 168.92 C 1032.92 161.60 1030.65 150.82 1032.93 141.93 C 1035.20 133.03 1039.76 127.75 1047.08 122.08 C 1054.41 116.42 1063.90 114.71 1073.22 116.78 C 1082.54 118.85 1087.11 124.46 1091.77 132.23 C 1096.43 140.00 1095.14 150.90 1087.92 155.92 C 1080.70 160.93 1065.99 156.12 1070.78 145.78 C 1075.57 135.43 1061.34 134.68 1055.75 142.75 C 1050.17 150.83 1050.85 161.09 1057.25 167.75 C 1063.65 174.41 1073.67 175.64 1082.07 174.07 C 1090.48 172.50 1099.20 169.01 1106.23 164.23 C 1113.26 159.45 1119.45 154.81 1126.70 150.70 C 1133.94 146.58 1140.48 141.71 1147.00 137.00
C 1137.62 131.96 1133.05 128.73 1122.00 127.00 C 1110.94 125.28 1104.41 138.51 1111.00 148.00
C 1099.87 145.61 1096.78 125.12 1106.75 118.75 C 1116.72 112.38 1131.81 116.73 1141.23 123.77 C 1150.65 130.81 1163.56 129.43 1173.01 123.01 C 1182.46 116.58 1197.21 113.02 1206.75 120.25 C 1216.28 127.49 1213.20 147.46 1201.00 149.00
C 1206.87 140.73 1204.27 126.77 1193.00 127.00 C 1181.72 127.24 1175.34 131.18 1166.00 136.00
C 1169.55 142.64 1177.54 144.88 1183.70 149.30 C 1189.85 153.72 1196.27 156.86 1202.70 161.30 C 1209.12 165.75 1215.54 168.88 1223.07 171.93 C 1230.61 174.97 1241.87 176.68 1249.69 172.69 C 1257.52 168.71 1262.28 163.09 1262.00 154.00 C 1261.72 144.90 1259.05 137.35 1248.00 137.00 C 1236.95 136.66 1246.80 150.13 1239.25 155.25 C 1231.69 160.37 1220.28 155.88 1219.00 147.00
C 1210.69 128.20 1237.08 110.71 1255.22 115.78 C 1273.36 120.85 1288.13 142.88 1281.02 162.02 C 1273.92 181.17 1252.98 190.69 1234.00 188.00 C 1215.02 185.31 1200.71 172.73 1185.00 163.00
C 1184.47 164.28 1185.97 164.86 1186.00 166.00
M 1157.00 181.00 
C 1159.31 189.94 1159.71 200.91 1168.00 207.00
C 1164.26 213.08 1158.59 218.64 1157.00 226.00
C 1157.00 219.78 1141.63 211.67 1146.31 205.30 C 1150.99 198.94 1154.98 188.31 1157.00 181.00
M 157.00 213.00 
C 129.88 213.00 103.27 211.38 76.00 212.00
C 90.89 208.56 108.04 210.51 124.00 210.00
C 338.05 210.00 552.03 202.05 766.00 201.00
C 766.44 208.60 772.50 214.25 775.00 221.00
C 568.98 218.45 363.06 215.42 157.00 213.00
M 2307.00 211.00 
C 2052.85 216.47 1796.87 218.06 1542.00 222.00
C 1549.35 212.05 1550.07 198.78 1565.00 201.00 C 1579.93 203.22 1594.40 199.52 1609.00 201.00 C 1623.60 202.48 1637.25 201.94 1652.00 202.00 C 1666.75 202.06 1681.30 202.01 1696.00 202.00 C 1710.70 201.99 1725.22 203.58 1740.00 203.00 C 1754.78 202.42 1768.58 203.30 1783.00 204.00 C 1797.42 204.70 1812.47 203.73 1827.00 204.00 C 1841.53 204.27 1855.30 205.24 1870.00 205.00 C 1884.70 204.76 1900.31 205.27 1915.00 205.00 C 1929.69 204.73 1943.29 206.62 1958.00 206.00 C 1972.71 205.38 1986.50 206.72 2001.00 207.00 C 2015.50 207.28 2030.47 206.70 2045.00 207.00 C 2059.53 207.30 2074.28 206.34 2088.67 207.33 C 2103.06 208.32 2118.35 208.11 2133.00 208.00 C 2147.65 207.89 2161.59 208.29 2176.00 209.00 C 2190.41 209.71 2205.70 207.91 2220.00 209.00 C 2234.30 210.09 2248.41 209.96 2263.00 210.00 C 2277.59 210.04 2292.14 211.86 2307.00 211.00
M 1002.00 276.00 
C 1003.94 272.23 1004.48 267.24 1006.00 263.00
C 1005.05 296.62 1030.34 327.58 1063.02 335.98 C 1095.71 344.38 1138.06 330.37 1151.00 297.00
C 1147.30 321.70 1122.65 335.10 1098.98 340.98 C 1075.31 346.85 1042.96 337.17 1025.25 319.75 C 1007.53 302.33 982.91 282.70 959.00 299.00
C 962.57 276.23 992.57 283.28 1005.00 294.00
C 998.78 284.82 995.43 274.53 990.03 264.98 C 984.62 255.42 978.31 248.11 968.31 242.70 C 958.30 237.28 942.97 239.82 936.25 250.25 C 929.53 260.67 930.57 272.64 943.08 278.92 C 955.58 285.21 965.92 259.66 947.00 262.00
C 960.46 243.73 975.11 274.46 959.25 284.25 C 943.39 294.04 925.67 283.34 924.02 265.98 C 922.38 248.62 935.70 235.03 952.02 233.02 C 968.35 231.02 982.42 242.06 991.00 255.00
C 990.89 238.59 976.63 216.17 956.00 221.00
C 964.53 205.37 981.79 219.28 988.31 231.70 C 994.82 244.11 996.65 262.49 1002.00 276.00
M 1360.00 221.00 
C 1339.01 217.31 1322.66 237.15 1321.00 256.00
C 1330.06 243.68 1342.45 232.13 1359.00 233.00 C 1375.55 233.87 1389.98 247.23 1389.00 265.00 C 1388.02 282.77 1370.10 294.35 1353.77 284.23 C 1337.45 274.11 1352.52 244.22 1366.00 262.00
C 1347.17 260.32 1358.68 285.64 1371.02 279.02 C 1383.37 272.41 1383.54 259.35 1376.75 249.25 C 1369.95 239.16 1354.62 237.74 1344.77 242.77 C 1334.92 247.80 1328.64 255.96 1323.23 265.23 C 1317.82 274.50 1313.53 284.70 1308.00 294.00
C 1320.19 284.83 1346.97 276.36 1353.00 297.00
C 1312.04 278.91 1291.23 327.77 1255.98 337.98 C 1220.72 348.18 1171.21 336.06 1160.00 296.00
C 1164.89 301.81 1166.75 309.61 1172.75 315.25 C 1178.75 320.88 1184.52 324.96 1191.70 329.30 C 1198.88 333.64 1208.31 336.41 1217.00 337.00 C 1225.69 337.59 1239.37 339.48 1247.67 336.67 C 1255.98 333.87 1263.40 332.11 1270.23 327.23 C 1277.06 322.35 1282.63 318.62 1288.25 312.25 C 1293.87 305.87 1297.12 299.43 1300.93 291.93 C 1304.74 284.42 1305.24 272.38 1308.00 266.00
C 1308.91 269.60 1309.79 273.82 1311.00 277.00
C 1316.15 263.40 1318.34 244.68 1324.93 231.93 C 1331.51 219.17 1351.98 205.46 1360.00 221.00
M 1525.00 235.00 
C 1504.07 252.99 1472.76 250.04 1450.00 237.00
C 1454.79 253.42 1433.90 273.20 1420.00 260.00
C 1429.69 261.74 1435.19 251.99 1436.00 244.00
C 1430.85 247.67 1420.48 251.04 1416.00 245.00
C 1424.72 237.84 1435.35 231.40 1439.00 220.00
C 1461.94 240.60 1496.38 247.13 1525.00 235.00
M 902.00 246.00 
C 894.97 251.36 887.61 245.19 881.00 243.00
C 881.44 251.05 886.56 261.38 896.00 261.00
C 881.75 270.50 864.05 251.60 869.00 236.00
C 849.63 247.89 823.95 252.90 803.00 241.00
C 812.33 238.63 827.16 242.42 837.00 241.00 C 846.84 239.58 855.48 234.85 863.69 230.69 C 871.91 226.54 879.21 217.40 883.77 227.23 C 888.33 237.06 896.72 237.39 902.00 246.00
M 918.00 245.00 
C 911.31 257.42 911.25 273.02 919.00 285.00
C 903.90 278.01 902.81 252.58 918.00 245.00
M 1394.00 285.00 
C 1402.98 273.34 1402.42 257.81 1396.00 245.00
C 1409.85 252.32 1409.99 279.54 1394.00 285.00
M 1204.00 345.00 
C 1190.17 363.94 1163.72 341.59 1164.00 323.00
C 1171.92 337.05 1187.43 346.14 1204.00 345.00
M 1109.00 345.00 
C 1124.44 346.83 1139.34 337.99 1147.00 325.00
C 1150.40 342.02 1120.87 364.08 1109.00 345.00
M 1159.00 325.00 
C 1158.60 331.93 1162.23 344.51 1163.93 351.07 C 1165.63 357.64 1162.51 376.12 1154.78 373.22 C 1147.04 370.31 1146.89 354.09 1148.78 347.78 C 1150.67 341.47 1152.24 326.39 1159.00 325.00 Z"/>
</g>
<g fill="None" fill-opacity="0.0" stroke="#CBB99B" stroke-opacity="1.00" stroke-width="0.3"><path d="
M 1157.00 55.00 
C 1140.36 71.36 1147.76 99.50 1157.00 116.00
C 1164.38 97.21 1172.68 72.41 1157.00 55.00 Z"/>
</g>
<g fill="None" fill-opacity="0.0" stroke="#C8B79A" stroke-opacity="1.00" stroke-width="0.3"><path d="
M 1145.00 113.00 
C 1147.82 89.35 1101.57 77.72 1100.00 106.00
C 1113.70 93.45 1133.15 102.60 1145.00 113.00 Z"/>
</g>
<g fill="None" fill-opacity="0.0" stroke="#C9B89A" stroke-opacity="1.00" stroke-width="0.3"><path d="
M 1213.00 106.00 
C 1209.88 77.18 1166.55 91.37 1166.00 115.00
C 1178.22 103.80 1198.21 92.95 1213.00 106.00 Z"/>
</g>
<g fill="None" fill-opacity="0.0" stroke="#C8B99E" stroke-opacity="1.00" stroke-width="0.3"><path d="
M 1051.00 105.00 
C 1038.79 104.15 1028.27 111.81 1020.25 122.25 C 1012.24 132.70 1012.97 149.16 1014.00 161.00
C 1008.09 156.10 1005.39 146.49 1004.00 140.00 C 1002.61 133.51 1009.41 114.97 1000.03 115.03 C 990.64 115.08 992.43 131.91 994.07 137.93 C 995.72 143.94 1002.28 151.98 1005.00 158.00
C 975.32 137.43 932.72 109.12 899.00 139.00
C 921.25 126.24 952.43 130.05 972.92 143.08 C 993.40 156.11 1009.21 168.91 1031.00 178.00
C 1009.50 155.34 1019.58 112.83 1051.00 105.00 Z"/>
</g>
<g fill="None" fill-opacity="0.0" stroke="#C8B99E" stroke-opacity="1.00" stroke-width="0.3"><path d="
M 1299.00 163.00 
C 1300.55 150.98 1301.46 132.58 1292.77 122.23 C 1284.08 111.88 1274.92 103.39 1262.00 105.00
C 1293.15 112.48 1304.42 155.34 1282.00 178.00
C 1305.24 169.24 1321.50 154.74 1343.31 142.31 C 1365.11 129.87 1397.36 125.92 1420.00 140.00
C 1384.61 107.84 1337.71 138.14 1306.00 160.00
C 1310.48 154.77 1317.22 145.17 1319.07 139.07 C 1320.92 132.98 1324.36 115.39 1314.01 115.01 C 1303.66 114.63 1311.63 134.09 1309.98 140.98 C 1308.32 147.86 1303.45 156.92 1299.00 163.00 Z"/>
</g>
<g fill="None" fill-opacity="0.0" stroke="#E0D9C8" stroke-opacity="1.00" stroke-width="0.3"><path d="
M 1219.00 147.00 
C 1216.30 130.01 1230.23 116.55 1246.00 116.00 C 1261.78 115.45 1275.51 126.26 1279.92 141.08 C 1284.34 155.89 1276.89 172.46 1263.77 180.77 C 1250.65 189.08 1232.88 187.25 1218.78 181.22 C 1204.67 175.19 1193.97 168.60 1182.00 159.00
C 1181.47 160.28 1182.97 160.86 1183.00 162.00
C 1183.92 163.24 1185.24 164.87 1186.00 166.00
C 1185.97 164.86 1184.47 164.28 1185.00 163.00
C 1200.71 172.73 1215.02 185.31 1234.00 188.00 C 1252.98 190.69 1273.92 181.17 1281.02 162.02 C 1288.13 142.88 1273.36 120.85 1255.22 115.78 C 1237.08 110.71 1210.69 128.20 1219.00 147.00 Z"/>
</g>
<g fill="None" fill-opacity="0.0" stroke="#C9B799" stroke-opacity="1.00" stroke-width="0.3"><path d="
M 1128.00 165.00 
C 1133.83 157.16 1141.54 149.25 1151.00 146.00
C 1150.43 149.23 1147.15 151.52 1147.00 155.00
C 1150.43 145.82 1158.06 140.89 1164.00 151.00
C 1163.06 148.94 1160.84 147.50 1161.00 145.00
C 1169.38 148.51 1176.90 155.40 1183.00 162.00
C 1182.97 160.86 1181.47 160.28 1182.00 159.00
C 1193.97 168.60 1204.67 175.19 1218.78 181.22 C 1232.88 187.25 1250.65 189.08 1263.77 180.77 C 1276.89 172.46 1284.34 155.89 1279.92 141.08 C 1275.51 126.26 1261.78 115.45 1246.00 116.00 C 1230.23 116.55 1216.30 130.01 1219.00 147.00
C 1220.28 155.88 1231.69 160.37 1239.25 155.25 C 1246.80 150.13 1236.95 136.66 1248.00 137.00 C 1259.05 137.35 1261.72 144.90 1262.00 154.00 C 1262.28 163.09 1257.52 168.71 1249.69 172.69 C 1241.87 176.68 1230.61 174.97 1223.07 171.93 C 1215.54 168.88 1209.12 165.75 1202.70 161.30 C 1196.27 156.86 1189.85 153.72 1183.70 149.30 C 1177.54 144.88 1169.55 142.64 1166.00 136.00
C 1175.34 131.18 1181.72 127.24 1193.00 127.00 C 1204.27 126.77 1206.87 140.73 1201.00 149.00
C 1213.20 147.46 1216.28 127.49 1206.75 120.25 C 1197.21 113.02 1182.46 116.58 1173.01 123.01 C 1163.56 129.43 1150.65 130.81 1141.23 123.77 C 1131.81 116.73 1116.72 112.38 1106.75 118.75 C 1096.78 125.12 1099.87 145.61 1111.00 148.00
C 1104.41 138.51 1110.94 125.28 1122.00 127.00 C 1133.05 128.73 1137.62 131.96 1147.00 137.00
C 1140.48 141.71 1133.94 146.58 1126.70 150.70 C 1119.45 154.81 1113.26 159.45 1106.23 164.23 C 1099.20 169.01 1090.48 172.50 1082.07 174.07 C 1073.67 175.64 1063.65 174.41 1057.25 167.75 C 1050.85 161.09 1050.17 150.83 1055.75 142.75 C 1061.34 134.68 1075.57 135.43 1070.78 145.78 C 1065.99 156.12 1080.70 160.93 1087.92 155.92 C 1095.14 150.90 1096.43 140.00 1091.77 132.23 C 1087.11 124.46 1082.54 118.85 1073.22 116.78 C 1063.90 114.71 1054.41 116.42 1047.08 122.08 C 1039.76 127.75 1035.20 133.03 1032.93 141.93 C 1030.65 150.82 1032.92 161.60 1038.08 168.92 C 1043.24 176.23 1047.54 180.96 1055.98 184.02 C 1064.41 187.09 1076.71 188.50 1085.32 185.32 C 1093.93 182.14 1100.97 178.78 1108.77 174.77 C 1116.57 170.76 1121.64 166.06 1129.00 162.00
C 1129.40 163.25 1128.27 163.98 1128.00 165.00 Z"/>
</g>
<g fill="None" fill-opacity="0.0" stroke="#868F70" stroke-opacity="1.00" stroke-width="0.3"><path d="
M 882.00 192.00 
C 882.00 194.53 881.56 197.51 882.00 200.00
C 887.13 216.02 899.72 231.42 918.00 233.00 C 936.28 234.58 957.56 219.96 950.98 199.03 C 944.39 178.09 910.10 188.78 924.00 210.00
C 894.84 210.08 905.92 169.58 928.00 168.00 C 950.08 166.42 968.30 181.26 980.70 197.30 C 993.09 213.35 1000.40 230.53 1019.00 240.00
C 1021.99 230.85 1028.43 231.63 1018.08 224.92 C 1007.73 218.21 998.12 206.75 991.00 197.00
C 1008.54 208.97 1026.87 221.32 1048.00 225.00
C 1036.71 232.06 1022.81 239.83 1018.98 254.98 C 1015.15 270.12 1018.19 288.14 1027.25 300.75 C 1036.31 313.36 1047.32 319.95 1061.00 325.00
C 1062.00 324.95 1063.73 325.43 1064.00 324.00
C 1059.27 321.22 1056.58 310.88 1061.00 308.00
C 1062.06 325.57 1083.74 330.07 1098.00 326.00
C 1098.00 326.00 1098.53 326.11 1099.00 326.00
C 1092.46 321.19 1080.65 316.68 1084.00 305.00
C 1089.10 314.84 1099.63 323.72 1112.00 321.00
C 1115.26 319.71 1118.85 318.47 1122.00 317.00
C 1123.86 315.90 1126.15 313.46 1128.00 312.00
C 1117.88 312.30 1105.89 305.37 1105.00 294.00
C 1113.43 305.59 1128.77 310.65 1140.00 300.00
C 1140.81 299.02 1142.35 297.87 1143.00 297.00
C 1145.10 292.81 1147.19 288.35 1149.00 284.00
C 1148.85 284.14 1141.26 286.89 1136.99 287.99 C 1132.72 289.10 1126.23 285.41 1123.25 281.75 C 1120.27 278.10 1116.00 273.87 1112.00 272.00
C 1120.49 270.44 1124.14 279.61 1132.70 282.30 C 1141.25 285.00 1148.64 276.58 1153.00 270.00
C 1153.09 268.68 1152.99 267.32 1153.00 266.00
C 1153.01 263.67 1152.99 261.33 1153.00 259.00
C 1137.03 270.29 1125.92 248.05 1111.00 248.00
C 1118.39 242.66 1127.70 247.76 1134.03 252.97 C 1140.36 258.19 1156.26 257.08 1153.00 245.00
C 1153.20 229.88 1141.60 218.95 1133.00 208.00
C 1148.94 195.10 1142.46 172.53 1147.00 155.00
C 1147.15 151.52 1150.43 149.23 1151.00 146.00
C 1141.54 149.25 1133.83 157.16 1128.00 165.00
C 1116.29 180.75 1105.49 195.11 1084.67 198.67 C 1063.85 202.23 1040.99 195.25 1023.23 185.77 C 1005.47 176.29 992.05 167.33 975.08 156.92 C 958.10 146.52 933.26 140.05 914.08 147.08 C 894.89 154.10 882.00 171.72 882.00 192.00
M 1059.00 263.00 
C 1062.79 275.16 1080.33 269.98 1084.30 259.30 C 1088.28 248.63 1084.80 236.09 1075.00 229.00
C 1091.92 222.67 1097.12 239.79 1098.00 253.00 C 1098.88 266.21 1091.53 278.20 1080.32 284.32 C 1069.11 290.44 1052.18 290.08 1044.25 278.75 C 1036.31 267.42 1035.55 253.34 1048.70 244.70 C 1061.85 236.06 1078.78 258.27 1059.00 263.00 Z"/>
</g>
<g fill="None" fill-opacity="0.0" stroke="#879070" stroke-opacity="1.00" stroke-width="0.3"><path d="
M 1186.00 166.00 
C 1185.24 164.87 1183.92 163.24 1183.00 162.00
C 1176.90 155.40 1169.38 148.51 1161.00 145.00
C 1160.84 147.50 1163.06 148.94 1164.00 151.00
C 1170.81 170.27 1164.76 193.86 1180.00 210.00
C 1168.92 218.20 1161.72 229.81 1160.00 243.00
C 1159.07 250.11 1157.08 255.49 1168.00 256.00 C 1178.92 256.51 1192.27 238.06 1202.00 249.00
C 1186.47 246.96 1174.07 271.96 1159.00 258.00
C 1159.00 260.33 1159.00 262.67 1159.00 265.00
C 1159.47 267.42 1159.61 269.56 1160.00 272.00
C 1162.83 278.71 1173.59 285.13 1180.67 282.67 C 1187.75 280.21 1193.16 269.01 1201.00 272.00
C 1193.07 275.87 1188.12 287.06 1178.99 287.99 C 1169.86 288.92 1169.62 284.50 1165.00 286.00
C 1167.18 290.41 1168.95 294.90 1172.00 299.00
C 1183.00 310.66 1199.32 306.02 1208.00 294.00
C 1206.72 305.13 1194.08 310.37 1185.00 312.00
C 1197.83 326.52 1223.27 321.93 1229.00 303.00
C 1231.82 312.01 1222.93 324.45 1213.00 325.00
C 1213.74 327.20 1217.33 324.69 1218.00 327.00
C 1221.70 327.56 1225.03 328.00 1229.00 328.00
C 1237.96 326.72 1248.25 321.10 1252.00 312.00
C 1255.09 315.54 1250.03 319.83 1251.00 324.00
C 1252.33 324.00 1253.67 324.00 1255.00 324.00
C 1275.12 316.13 1290.09 300.85 1295.22 279.22 C 1300.35 257.59 1286.27 233.56 1266.00 225.00
C 1286.40 221.39 1303.88 209.12 1322.00 200.00
C 1313.26 211.72 1301.89 222.50 1289.00 229.00
C 1290.89 240.04 1299.76 241.06 1305.75 233.75 C 1311.74 226.45 1316.66 223.63 1321.70 216.70 C 1326.73 209.77 1330.82 203.53 1336.25 197.25 C 1341.68 190.97 1346.71 186.45 1352.92 180.92 C 1359.12 175.39 1366.80 171.41 1374.99 168.99 C 1383.18 166.57 1394.83 167.71 1401.75 173.25 C 1408.67 178.79 1414.18 186.60 1412.33 195.33 C 1410.47 204.06 1403.62 211.18 1394.00 210.00
C 1408.65 189.20 1373.38 177.75 1366.98 198.98 C 1360.57 220.20 1380.91 233.08 1399.00 232.00 C 1417.09 230.92 1430.94 218.18 1435.00 201.00
C 1435.79 197.66 1436.00 194.63 1436.00 191.00
C 1436.00 164.33 1412.24 143.55 1386.00 144.00 C 1359.76 144.45 1338.59 158.51 1316.70 171.70 C 1294.80 184.88 1273.83 196.28 1247.67 199.67 C 1221.51 203.06 1199.86 186.73 1186.00 166.00
M 1236.00 230.00 
C 1227.05 237.13 1223.94 249.79 1228.31 259.69 C 1232.67 269.60 1249.59 275.33 1253.00 263.00
C 1233.78 259.13 1250.22 236.56 1263.02 243.98 C 1275.83 251.39 1277.03 266.32 1269.70 277.70 C 1262.36 289.07 1245.04 290.66 1233.78 285.22 C 1222.51 279.79 1214.97 267.16 1215.00 255.00 C 1215.03 242.84 1219.84 221.53 1236.00 230.00 Z"/>
</g>
<g fill="None" fill-opacity="0.0" stroke="#C8B799" stroke-opacity="1.00" stroke-width="0.3"><path d="
M 882.00 200.00 
C 881.56 197.51 882.00 194.53 882.00 192.00
C 866.28 209.27 843.44 219.51 820.67 217.33 C 797.91 215.14 778.67 182.77 801.00 169.00
C 789.99 183.47 812.30 197.55 820.69 184.69 C 829.09 171.84 818.80 156.86 806.00 155.00 C 793.20 153.14 780.82 162.38 776.32 174.32 C 771.82 186.26 774.92 201.88 783.25 211.75 C 791.58 221.62 802.70 227.11 814.78 229.22 C 826.86 231.33 845.05 228.04 854.31 221.31 C 863.56 214.57 879.00 212.13 882.00 200.00 Z"/>
</g>
<g fill="None" fill-opacity="0.0" stroke="#C8B698" stroke-opacity="1.00" stroke-width="0.3"><path d="
M 1436.00 191.00 
C 1436.00 194.63 1435.79 197.66 1435.00 201.00
C 1445.87 210.15 1455.98 218.21 1469.32 223.68 C 1482.66 229.15 1503.94 231.57 1517.32 225.32 C 1530.70 219.07 1540.18 210.11 1543.67 195.67 C 1547.16 181.23 1540.65 161.84 1525.68 157.32 C 1510.70 152.80 1490.99 161.45 1496.08 179.92 C 1501.16 198.40 1528.83 186.46 1517.00 169.00
C 1528.54 170.31 1528.87 184.08 1526.99 192.99 C 1525.12 201.91 1518.40 207.87 1510.70 212.69 C 1502.99 217.52 1489.53 219.08 1481.00 217.00 C 1472.47 214.92 1460.87 212.88 1454.75 207.25 C 1448.62 201.63 1438.37 198.82 1436.00 191.00 Z"/>
</g>
<g fill="None" fill-opacity="0.0" stroke="#C9B89C" stroke-opacity="1.00" stroke-width="0.3"><path d="
M 1157.00 181.00 
C 1154.98 188.31 1150.99 198.94 1146.31 205.30 C 1141.63 211.67 1157.00 219.78 1157.00 226.00
C 1158.59 218.64 1164.26 213.08 1168.00 207.00
C 1159.71 200.91 1159.31 189.94 1157.00 181.00 Z"/>
</g>
<g fill="None" fill-opacity="0.0" stroke="#CAB89A" stroke-opacity="1.00" stroke-width="0.3"><path d="
M 124.00 210.00 
C 133.93 211.92 146.76 212.01 157.00 213.00
C 363.06 215.42 568.98 218.45 775.00 221.00
C 772.50 214.25 766.44 208.60 766.00 201.00
C 552.03 202.05 338.05 210.00 124.00 210.00 Z"/>
</g>
<g fill="None" fill-opacity="0.0" stroke="#CAB89B" stroke-opacity="1.00" stroke-width="0.3"><path d="
M 2307.00 211.00 
C 2292.14 211.86 2277.59 210.04 2263.00 210.00 C 2248.41 209.96 2234.30 210.09 2220.00 209.00 C 2205.70 207.91 2190.41 209.71 2176.00 209.00 C 2161.59 208.29 2147.65 207.89 2133.00 208.00 C 2118.35 208.11 2103.06 208.32 2088.67 207.33 C 2074.28 206.34 2059.53 207.30 2045.00 207.00 C 2030.47 206.70 2015.50 207.28 2001.00 207.00 C 1986.50 206.72 1972.71 205.38 1958.00 206.00 C 1943.29 206.62 1929.69 204.73 1915.00 205.00 C 1900.31 205.27 1884.70 204.76 1870.00 205.00 C 1855.30 205.24 1841.53 204.27 1827.00 204.00 C 1812.47 203.73 1797.42 204.70 1783.00 204.00 C 1768.58 203.30 1754.78 202.42 1740.00 203.00 C 1725.22 203.58 1710.70 201.99 1696.00 202.00 C 1681.30 202.01 1666.75 202.06 1652.00 202.00 C 1637.25 201.94 1623.60 202.48 1609.00 201.00 C 1594.40 199.52 1579.93 203.22 1565.00 201.00 C 1550.07 198.78 1549.35 212.05 1542.00 222.00
C 1796.87 218.06 2052.85 216.47 2307.00 211.00 Z"/>
</g>
<g fill="None" fill-opacity="0.0" stroke="#D0C9B9" stroke-opacity="1.00" stroke-width="0.3"><path d="
M 157.00 213.00 
C 146.76 212.01 133.93 211.92 124.00 210.00
C 108.04 210.51 90.89 208.56 76.00 212.00
C 103.27 211.38 129.88 213.00 157.00 213.00 Z"/>
</g>
<g fill="None" fill-opacity="0.0" stroke="#C8B89E" stroke-opacity="1.00" stroke-width="0.3"><path d="
M 1002.00 276.00 
C 996.65 262.49 994.82 244.11 988.31 231.70 C 981.79 219.28 964.53 205.37 956.00 221.00
C 976.63 216.17 990.89 238.59 991.00 255.00
C 982.42 242.06 968.35 231.02 952.02 233.02 C 935.70 235.03 922.38 248.62 924.02 265.98 C 925.67 283.34 943.39 294.04 959.25 284.25 C 975.11 274.46 960.46 243.73 947.00 262.00
C 965.92 259.66 955.58 285.21 943.08 278.92 C 930.57 272.64 929.53 260.67 936.25 250.25 C 942.97 239.82 958.30 237.28 968.31 242.70 C 978.31 248.11 984.62 255.42 990.03 264.98 C 995.43 274.53 998.78 284.82 1005.00 294.00
C 992.57 283.28 962.57 276.23 959.00 299.00
C 982.91 282.70 1007.53 302.33 1025.25 319.75 C 1042.96 337.17 1075.31 346.85 1098.98 340.98 C 1122.65 335.10 1147.30 321.70 1151.00 297.00
C 1138.06 330.37 1095.71 344.38 1063.02 335.98 C 1030.34 327.58 1005.05 296.62 1006.00 263.00
C 1004.48 267.24 1003.94 272.23 1002.00 276.00 Z"/>
</g>
<g fill="None" fill-opacity="0.0" stroke="#C8B89C" stroke-opacity="1.00" stroke-width="0.3"><path d="
M 1360.00 221.00 
C 1351.98 205.46 1331.51 219.17 1324.93 231.93 C 1318.34 244.68 1316.15 263.40 1311.00 277.00
C 1309.79 273.82 1308.91 269.60 1308.00 266.00
C 1305.24 272.38 1304.74 284.42 1300.93 291.93 C 1297.12 299.43 1293.87 305.87 1288.25 312.25 C 1282.63 318.62 1277.06 322.35 1270.23 327.23 C 1263.40 332.11 1255.98 333.87 1247.67 336.67 C 1239.37 339.48 1225.69 337.59 1217.00 337.00 C 1208.31 336.41 1198.88 333.64 1191.70 329.30 C 1184.52 324.96 1178.75 320.88 1172.75 315.25 C 1166.75 309.61 1164.89 301.81 1160.00 296.00
C 1171.21 336.06 1220.72 348.18 1255.98 337.98 C 1291.23 327.77 1312.04 278.91 1353.00 297.00
C 1346.97 276.36 1320.19 284.83 1308.00 294.00
C 1313.53 284.70 1317.82 274.50 1323.23 265.23 C 1328.64 255.96 1334.92 247.80 1344.77 242.77 C 1354.62 237.74 1369.95 239.16 1376.75 249.25 C 1383.54 259.35 1383.37 272.41 1371.02 279.02 C 1358.68 285.64 1347.17 260.32 1366.00 262.00
C 1352.52 244.22 1337.45 274.11 1353.77 284.23 C 1370.10 294.35 1388.02 282.77 1389.00 265.00 C 1389.98 247.23 1375.55 233.87 1359.00 233.00 C 1342.45 232.13 1330.06 243.68 1321.00 256.00
C 1322.66 237.15 1339.01 217.31 1360.00 221.00 Z"/>
</g>
<g fill="None" fill-opacity="0.0" stroke="#CBBBA0" stroke-opacity="1.00" stroke-width="0.3"><path d="
M 1525.00 235.00 
C 1496.38 247.13 1461.94 240.60 1439.00 220.00
C 1435.35 231.40 1424.72 237.84 1416.00 245.00
C 1420.48 251.04 1430.85 247.67 1436.00 244.00
C 1435.19 251.99 1429.69 261.74 1420.00 260.00
C 1433.90 273.20 1454.79 253.42 1450.00 237.00
C 1472.76 250.04 1504.07 252.99 1525.00 235.00 Z"/>
</g>
<g fill="None" fill-opacity="0.0" stroke="#C9B89D" stroke-opacity="1.00" stroke-width="0.3"><path d="
M 902.00 246.00 
C 896.72 237.39 888.33 237.06 883.77 227.23 C 879.21 217.40 871.91 226.54 863.69 230.69 C 855.48 234.85 846.84 239.58 837.00 241.00 C 827.16 242.42 812.33 238.63 803.00 241.00
C 823.95 252.90 849.63 247.89 869.00 236.00
C 864.05 251.60 881.75 270.50 896.00 261.00
C 886.56 261.38 881.44 251.05 881.00 243.00
C 887.61 245.19 894.97 251.36 902.00 246.00 Z"/>
</g>
<g fill="None" fill-opacity="0.0" stroke="#F5F6EF" stroke-opacity="1.00" stroke-width="0.3"><path d="
M 1059.00 263.00 
C 1078.78 258.27 1061.85 236.06 1048.70 244.70 C 1035.55 253.34 1036.31 267.42 1044.25 278.75 C 1052.18 290.08 1069.11 290.44 1080.32 284.32 C 1091.53 278.20 1098.88 266.21 1098.00 253.00 C 1097.12 239.79 1091.92 222.67 1075.00 229.00
C 1084.80 236.09 1088.28 248.63 1084.30 259.30 C 1080.33 269.98 1062.79 275.16 1059.00 263.00 Z"/>
</g>
<g fill="None" fill-opacity="0.0" stroke="#F6F6F0" stroke-opacity="1.00" stroke-width="0.3"><path d="
M 1236.00 230.00 
C 1219.84 221.53 1215.03 242.84 1215.00 255.00 C 1214.97 267.16 1222.51 279.79 1233.78 285.22 C 1245.04 290.66 1262.36 289.07 1269.70 277.70 C 1277.03 266.32 1275.83 251.39 1263.02 243.98 C 1250.22 236.56 1233.78 259.13 1253.00 263.00
C 1249.59 275.33 1232.67 269.60 1228.31 259.69 C 1223.94 249.79 1227.05 237.13 1236.00 230.00 Z"/>
</g>
<g fill="None" fill-opacity="0.0" stroke="#B8AD8F" stroke-opacity="1.00" stroke-width="0.3"><path d="
M 1159.00 265.00 
C 1159.00 262.67 1159.00 260.33 1159.00 258.00
C 1174.07 271.96 1186.47 246.96 1202.00 249.00
C 1192.27 238.06 1178.92 256.51 1168.00 256.00 C 1157.08 255.49 1159.07 250.11 1160.00 243.00
C 1158.32 250.11 1157.56 257.53 1159.00 265.00 Z"/>
</g>
<g fill="None" fill-opacity="0.0" stroke="#CABDA5" stroke-opacity="1.00" stroke-width="0.3"><path d="
M 918.00 245.00 
C 902.81 252.58 903.90 278.01 919.00 285.00
C 911.25 273.02 911.31 257.42 918.00 245.00 Z"/>
</g>
<g fill="None" fill-opacity="0.0" stroke="#B5AA8B" stroke-opacity="1.00" stroke-width="0.3"><path d="
M 1153.00 266.00 
C 1153.90 259.43 1153.95 251.64 1153.00 245.00
C 1156.26 257.08 1140.36 258.19 1134.03 252.97 C 1127.70 247.76 1118.39 242.66 1111.00 248.00
C 1125.92 248.05 1137.03 270.29 1153.00 259.00
C 1152.99 261.33 1153.01 263.67 1153.00 266.00 Z"/>
</g>
<g fill="None" fill-opacity="0.0" stroke="#CABCA3" stroke-opacity="1.00" stroke-width="0.3"><path d="
M 1394.00 285.00 
C 1409.99 279.54 1409.85 252.32 1396.00 245.00
C 1402.42 257.81 1402.98 273.34 1394.00 285.00 Z"/>
</g>
<g fill="None" fill-opacity="0.0" stroke="#BBB090" stroke-opacity="1.00" stroke-width="0.3"><path d="
M 1149.00 284.00 
C 1150.79 279.70 1152.64 275.10 1153.00 270.00
C 1148.64 276.58 1141.25 285.00 1132.70 282.30 C 1124.14 279.61 1120.49 270.44 1112.00 272.00
C 1116.00 273.87 1120.27 278.10 1123.25 281.75 C 1126.23 285.41 1132.72 289.10 1136.99 287.99 C 1141.26 286.89 1148.85 284.14 1149.00 284.00 Z"/>
</g>
<g fill="None" fill-opacity="0.0" stroke="#BCB192" stroke-opacity="1.00" stroke-width="0.3"><path d="
M 1160.00 272.00 
C 1160.89 277.62 1162.63 281.20 1165.00 286.00
C 1169.62 284.50 1169.86 288.92 1178.99 287.99 C 1188.12 287.06 1193.07 275.87 1201.00 272.00
C 1193.16 269.01 1187.75 280.21 1180.67 282.67 C 1173.59 285.13 1162.83 278.71 1160.00 272.00 Z"/>
</g>
<g fill="None" fill-opacity="0.0" stroke="#B5AA8A" stroke-opacity="1.00" stroke-width="0.3"><path d="
M 1128.00 312.00 
C 1132.38 308.54 1136.49 304.23 1140.00 300.00
C 1128.77 310.65 1113.43 305.59 1105.00 294.00
C 1105.89 305.37 1117.88 312.30 1128.00 312.00 Z"/>
</g>
<g fill="None" fill-opacity="0.0" stroke="#B6AC8F" stroke-opacity="1.00" stroke-width="0.3"><path d="
M 1172.00 299.00 
C 1183.55 314.53 1199.29 324.15 1218.00 327.00
C 1217.33 324.69 1213.74 327.20 1213.00 325.00
C 1222.93 324.45 1231.82 312.01 1229.00 303.00
C 1223.27 321.93 1197.83 326.52 1185.00 312.00
C 1194.08 310.37 1206.72 305.13 1208.00 294.00
C 1199.32 306.02 1183.00 310.66 1172.00 299.00 Z"/>
</g>
<g fill="None" fill-opacity="0.0" stroke="#D1CEBF" stroke-opacity="1.00" stroke-width="0.3"><path d="
M 1140.00 300.00 
C 1136.49 304.23 1132.38 308.54 1128.00 312.00
C 1126.15 313.46 1123.86 315.90 1122.00 317.00
C 1129.39 313.54 1139.35 304.30 1143.00 297.00
C 1142.35 297.87 1140.81 299.02 1140.00 300.00 Z"/>
</g>
<g fill="None" fill-opacity="0.0" stroke="#B7AD8F" stroke-opacity="1.00" stroke-width="0.3"><path d="
M 1099.00 326.00 
C 1103.46 324.95 1108.01 322.59 1112.00 321.00
C 1099.63 323.72 1089.10 314.84 1084.00 305.00
C 1080.65 316.68 1092.46 321.19 1099.00 326.00 Z"/>
</g>
<g fill="None" fill-opacity="0.0" stroke="#B1AB90" stroke-opacity="1.00" stroke-width="0.3"><path d="
M 1061.00 325.00 
C 1065.79 326.77 1073.27 329.49 1079.00 328.00 C 1084.73 326.51 1094.13 331.05 1098.00 326.00
C 1083.74 330.07 1062.06 325.57 1061.00 308.00
C 1056.58 310.88 1059.27 321.22 1064.00 324.00
C 1063.73 325.43 1062.00 324.95 1061.00 325.00 Z"/>
</g>
<g fill="None" fill-opacity="0.0" stroke="#B7B096" stroke-opacity="1.00" stroke-width="0.3"><path d="
M 1229.00 328.00 
C 1238.64 328.00 1246.78 327.89 1255.00 324.00
C 1253.67 324.00 1252.33 324.00 1251.00 324.00
C 1250.03 319.83 1255.09 315.54 1252.00 312.00
C 1248.25 321.10 1237.96 326.72 1229.00 328.00 Z"/>
</g>
<g fill="None" fill-opacity="0.0" stroke="#C7B79B" stroke-opacity="1.00" stroke-width="0.3"><path d="
M 1204.00 345.00 
C 1187.43 346.14 1171.92 337.05 1164.00 323.00
C 1163.72 341.59 1190.17 363.94 1204.00 345.00 Z"/>
</g>
<g fill="None" fill-opacity="0.0" stroke="#C8B99E" stroke-opacity="1.00" stroke-width="0.3"><path d="
M 1109.00 345.00 
C 1120.87 364.08 1150.40 342.02 1147.00 325.00
C 1139.34 337.99 1124.44 346.83 1109.00 345.00 Z"/>
</g>
<g fill="None" fill-opacity="0.0" stroke="#CCBCA1" stroke-opacity="1.00" stroke-width="0.3"><path d="
M 1159.00 325.00 
C 1152.24 326.39 1150.67 341.47 1148.78 347.78 C 1146.89 354.09 1147.04 370.31 1154.78 373.22 C 1162.51 376.12 1165.63 357.64 1163.93 351.07 C 1162.23 344.51 1158.60 331.93 1159.00 325.00 Z"/>
</g>
<g fill="#FAFAF5" fill-opacity="1.00" stroke="None">
<path d="
M 0.00 422.00 
L 2369.00 422.00
L 2369.00 0.00
L 0.00 0.00
L 0.00 422.00
M 1157.00 55.00 
C 1172.68 72.41 1164.38 97.21 1157.00 116.00
C 1147.76 99.50 1140.36 71.36 1157.00 55.00
M 1145.00 113.00 
C 1133.15 102.60 1113.70 93.45 1100.00 106.00
C 1101.57 77.72 1147.82 89.35 1145.00 113.00
M 1213.00 106.00 
C 1198.21 92.95 1178.22 103.80 1166.00 115.00
C 1166.55 91.37 1209.88 77.18 1213.00 106.00
M 1051.00 105.00 
C 1019.58 112.83 1009.50 155.34 1031.00 178.00
C 1009.21 168.91 993.40 156.11 972.92 143.08 C 952.43 130.05 921.25 126.24 899.00 139.00
C 932.72 109.12 975.32 137.43 1005.00 158.00
C 1002.28 151.98 995.72 143.94 994.07 137.93 C 992.43 131.91 990.64 115.08 1000.03 115.03 C 1009.41 114.97 1002.61 133.51 1004.00 140.00 C 1005.39 146.49 1008.09 156.10 1014.00 161.00
C 1012.97 149.16 1012.24 132.70 1020.25 122.25 C 1028.27 111.81 1038.79 104.15 1051.00 105.00
M 1299.00 163.00 
C 1303.45 156.92 1308.32 147.86 1309.98 140.98 C 1311.63 134.09 1303.66 114.63 1314.01 115.01 C 1324.36 115.39 1320.92 132.98 1319.07 139.07 C 1317.22 145.17 1310.48 154.77 1306.00 160.00
C 1337.71 138.14 1384.61 107.84 1420.00 140.00
C 1397.36 125.92 1365.11 129.87 1343.31 142.31 C 1321.50 154.74 1305.24 169.24 1282.00 178.00
C 1304.42 155.34 1293.15 112.48 1262.00 105.00
C 1274.92 103.39 1284.08 111.88 1292.77 122.23 C 1301.46 132.58 1300.55 150.98 1299.00 163.00
M 1186.00 166.00 
C 1199.86 186.73 1221.51 203.06 1247.67 199.67 C 1273.83 196.28 1294.80 184.88 1316.70 171.70 C 1338.59 158.51 1359.76 144.45 1386.00 144.00 C 1412.24 143.55 1436.00 164.33 1436.00 191.00
C 1438.37 198.82 1448.62 201.63 1454.75 207.25 C 1460.87 212.88 1472.47 214.92 1481.00 217.00 C 1489.53 219.08 1502.99 217.52 1510.70 212.69 C 1518.40 207.87 1525.12 201.91 1526.99 192.99 C 1528.87 184.08 1528.54 170.31 1517.00 169.00
C 1528.83 186.46 1501.16 198.40 1496.08 179.92 C 1490.99 161.45 1510.70 152.80 1525.68 157.32 C 1540.65 161.84 1547.16 181.23 1543.67 195.67 C 1540.18 210.11 1530.70 219.07 1517.32 225.32 C 1503.94 231.57 1482.66 229.15 1469.32 223.68 C 1455.98 218.21 1445.87 210.15 1435.00 201.00
C 1430.94 218.18 1417.09 230.92 1399.00 232.00 C 1380.91 233.08 1360.57 220.20 1366.98 198.98 C 1373.38 177.75 1408.65 189.20 1394.00 210.00
C 1403.62 211.18 1410.47 204.06 1412.33 195.33 C 1414.18 186.60 1408.67 178.79 1401.75 173.25 C 1394.83 167.71 1383.18 166.57 1374.99 168.99 C 1366.80 171.41 1359.12 175.39 1352.92 180.92 C 1346.71 186.45 1341.68 190.97 1336.25 197.25 C 1330.82 203.53 1326.73 209.77 1321.70 216.70 C 1316.66 223.63 1311.74 226.45 1305.75 233.75 C 1299.76 241.06 1290.89 240.04 1289.00 229.00
C 1301.89 222.50 1313.26 211.72 1322.00 200.00
C 1303.88 209.12 1286.40 221.39 1266.00 225.00
C 1286.27 233.56 1300.35 257.59 1295.22 279.22 C 1290.09 300.85 1275.12 316.13 1255.00 324.00
C 1246.78 327.89 1238.64 328.00 1229.00 328.00
C 1225.03 328.00 1221.70 327.56 1218.00 327.00
C 1199.29 324.15 1183.55 314.53 1172.00 299.00
C 1168.95 294.90 1167.18 290.41 1165.00 286.00
C 1162.63 281.20 1160.89 277.62 1160.00 272.00
C 1159.61 269.56 1159.47 267.42 1159.00 265.00
C 1157.56 257.53 1158.32 250.11 1160.00 243.00
C 1161.72 229.81 1168.92 218.20 1180.00 210.00
C 1164.76 193.86 1170.81 170.27 1164.00 151.00
C 1158.06 140.89 1150.43 145.82 1147.00 155.00
C 1142.46 172.53 1148.94 195.10 1133.00 208.00
C 1141.60 218.95 1153.20 229.88 1153.00 245.00
C 1153.95 251.64 1153.90 259.43 1153.00 266.00
C 1152.99 267.32 1153.09 268.68 1153.00 270.00
C 1152.64 275.10 1150.79 279.70 1149.00 284.00
C 1147.19 288.35 1145.10 292.81 1143.00 297.00
C 1139.35 304.30 1129.39 313.54 1122.00 317.00
C 1118.85 318.47 1115.26 319.71 1112.00 321.00
C 1108.01 322.59 1103.46 324.95 1099.00 326.00
C 1098.53 326.11 1098.00 326.00 1098.00 326.00
C 1094.13 331.05 1084.73 326.51 1079.00 328.00 C 1073.27 329.49 1065.79 326.77 1061.00 325.00
C 1047.32 319.95 1036.31 313.36 1027.25 300.75 C 1018.19 288.14 1015.15 270.12 1018.98 254.98 C 1022.81 239.83 1036.71 232.06 1048.00 225.00
C 1026.87 221.32 1008.54 208.97 991.00 197.00
C 998.12 206.75 1007.73 218.21 1018.08 224.92 C 1028.43 231.63 1021.99 230.85 1019.00 240.00
C 1000.40 230.53 993.09 213.35 980.70 197.30 C 968.30 181.26 950.08 166.42 928.00 168.00 C 905.92 169.58 894.84 210.08 924.00 210.00
C 910.10 188.78 944.39 178.09 950.98 199.03 C 957.56 219.96 936.28 234.58 918.00 233.00 C 899.72 231.42 887.13 216.02 882.00 200.00
C 879.00 212.13 863.56 214.57 854.31 221.31 C 845.05 228.04 826.86 231.33 814.78 229.22 C 802.70 227.11 791.58 221.62 783.25 211.75 C 774.92 201.88 771.82 186.26 776.32 174.32 C 780.82 162.38 793.20 153.14 806.00 155.00 C 818.80 156.86 829.09 171.84 820.69 184.69 C 812.30 197.55 789.99 183.47 801.00 169.00
C 778.67 182.77 797.91 215.14 820.67 217.33 C 843.44 219.51 866.28 209.27 882.00 192.00
C 882.00 171.72 894.89 154.10 914.08 147.08 C 933.26 140.05 958.10 146.52 975.08 156.92 C 992.05 167.33 1005.47 176.29 1023.23 185.77 C 1040.99 195.25 1063.85 202.23 1084.67 198.67 C 1105.49 195.11 1116.29 180.75 1128.00 165.00
C 1128.27 163.98 1129.40 163.25 1129.00 162.00
C 1121.64 166.06 1116.57 170.76 1108.77 174.77 C 1100.97 178.78 1093.93 182.14 1085.32 185.32 C 1076.71 188.50 1064.41 187.09 1055.98 184.02 C 1047.54 180.96 1043.24 176.23 1038.08 168.92 C 1032.92 161.60 1030.65 150.82 1032.93 141.93 C 1035.20 133.03 1039.76 127.75 1047.08 122.08 C 1054.41 116.42 1063.90 114.71 1073.22 116.78 C 1082.54 118.85 1087.11 124.46 1091.77 132.23 C 1096.43 140.00 1095.14 150.90 1087.92 155.92 C 1080.70 160.93 1065.99 156.12 1070.78 145.78 C 1075.57 135.43 1061.34 134.68 1055.75 142.75 C 1050.17 150.83 1050.85 161.09 1057.25 167.75 C 1063.65 174.41 1073.67 175.64 1082.07 174.07 C 1090.48 172.50 1099.20 169.01 1106.23 164.23 C 1113.26 159.45 1119.45 154.81 1126.70 150.70 C 1133.94 146.58 1140.48 141.71 1147.00 137.00
C 1137.62 131.96 1133.05 128.73 1122.00 127.00 C 1110.94 125.28 1104.41 138.51 1111.00 148.00
C 1099.87 145.61 1096.78 125.12 1106.75 118.75 C 1116.72 112.38 1131.81 116.73 1141.23 123.77 C 1150.65 130.81 1163.56 129.43 1173.01 123.01 C 1182.46 116.58 1197.21 113.02 1206.75 120.25 C 1216.28 127.49 1213.20 147.46 1201.00 149.00
C 1206.87 140.73 1204.27 126.77 1193.00 127.00 C 1181.72 127.24 1175.34 131.18 1166.00 136.00
C 1169.55 142.64 1177.54 144.88 1183.70 149.30 C 1189.85 153.72 1196.27 156.86 1202.70 161.30 C 1209.12 165.75 1215.54 168.88 1223.07 171.93 C 1230.61 174.97 1241.87 176.68 1249.69 172.69 C 1257.52 168.71 1262.28 163.09 1262.00 154.00 C 1261.72 144.90 1259.05 137.35 1248.00 137.00 C 1236.95 136.66 1246.80 150.13 1239.25 155.25 C 1231.69 160.37 1220.28 155.88 1219.00 147.00
C 1210.69 128.20 1237.08 110.71 1255.22 115.78 C 1273.36 120.85 1288.13 142.88 1281.02 162.02 C 1273.92 181.17 1252.98 190.69 1234.00 188.00 C 1215.02 185.31 1200.71 172.73 1185.00 163.00
C 1184.47 164.28 1185.97 164.86 1186.00 166.00
M 1157.00 181.00 
C 1159.31 189.94 1159.71 200.91 1168.00 207.00
C 1164.26 213.08 1158.59 218.64 1157.00 226.00
C 1157.00 219.78 1141.63 211.67 1146.31 205.30 C 1150.99 198.94 1154.98 188.31 1157.00 181.00
M 157.00 213.00 
C 129.88 213.00 103.27 211.38 76.00 212.00
C 90.89 208.56 108.04 210.51 124.00 210.00
C 338.05 210.00 552.03 202.05 766.00 201.00
C 766.44 208.60 772.50 214.25 775.00 221.00
C 568.98 218.45 363.06 215.42 157.00 213.00
M 2307.00 211.00 
C 2052.85 216.47 1796.87 218.06 1542.00 222.00
C 1549.35 212.05 1550.07 198.78 1565.00 201.00 C 1579.93 203.22 1594.40 199.52 1609.00 201.00 C 1623.60 202.48 1637.25 201.94 1652.00 202.00 C 1666.75 202.06 1681.30 202.01 1696.00 202.00 C 1710.70 201.99 1725.22 203.58 1740.00 203.00 C 1754.78 202.42 1768.58 203.30 1783.00 204.00 C 1797.42 204.70 1812.47 203.73 1827.00 204.00 C 1841.53 204.27 1855.30 205.24 1870.00 205.00 C 1884.70 204.76 1900.31 205.27 1915.00 205.00 C 1929.69 204.73 1943.29 206.62 1958.00 206.00 C 1972.71 205.38 1986.50 206.72 2001.00 207.00 C 2015.50 207.28 2030.47 206.70 2045.00 207.00 C 2059.53 207.30 2074.28 206.34 2088.67 207.33 C 2103.06 208.32 2118.35 208.11 2133.00 208.00 C 2147.65 207.89 2161.59 208.29 2176.00 209.00 C 2190.41 209.71 2205.70 207.91 2220.00 209.00 C 2234.30 210.09 2248.41 209.96 2263.00 210.00 C 2277.59 210.04 2292.14 211.86 2307.00 211.00
M 1002.00 276.00 
C 1003.94 272.23 1004.48 267.24 1006.00 263.00
C 1005.05 296.62 1030.34 327.58 1063.02 335.98 C 1095.71 344.38 1138.06 330.37 1151.00 297.00
C 1147.30 321.70 1122.65 335.10 1098.98 340.98 C 1075.31 346.85 1042.96 337.17 1025.25 319.75 C 1007.53 302.33 982.91 282.70 959.00 299.00
C 962.57 276.23 992.57 283.28 1005.00 294.00
C 998.78 284.82 995.43 274.53 990.03 264.98 C 984.62 255.42 978.31 248.11 968.31 242.70 C 958.30 237.28 942.97 239.82 936.25 250.25 C 929.53 260.67 930.57 272.64 943.08 278.92 C 955.58 285.21 965.92 259.66 947.00 262.00
C 960.46 243.73 975.11 274.46 959.25 284.25 C 943.39 294.04 925.67 283.34 924.02 265.98 C 922.38 248.62 935.70 235.03 952.02 233.02 C 968.35 231.02 982.42 242.06 991.00 255.00
C 990.89 238.59 976.63 216.17 956.00 221.00
C 964.53 205.37 981.79 219.28 988.31 231.70 C 994.82 244.11 996.65 262.49 1002.00 276.00
M 1360.00 221.00 
C 1339.01 217.31 1322.66 237.15 1321.00 256.00
C 1330.06 243.68 1342.45 232.13 1359.00 233.00 C 1375.55 233.87 1389.98 247.23 1389.00 265.00 C 1388.02 282.77 1370.10 294.35 1353.77 284.23 C 1337.45 274.11 1352.52 244.22 1366.00 262.00
C 1347.17 260.32 1358.68 285.64 1371.02 279.02 C 1383.37 272.41 1383.54 259.35 1376.75 249.25 C 1369.95 239.16 1354.62 237.74 1344.77 242.77 C 1334.92 247.80 1328.64 255.96 1323.23 265.23 C 1317.82 274.50 1313.53 284.70 1308.00 294.00
C 1320.19 284.83 1346.97 276.36 1353.00 297.00
C 1312.04 278.91 1291.23 327.77 1255.98 337.98 C 1220.72 348.18 1171.21 336.06 1160.00 296.00
C 1164.89 301.81 1166.75 309.61 1172.75 315.25 C 1178.75 320.88 1184.52 324.96 1191.70 329.30 C 1198.88 333.64 1208.31 336.41 1217.00 337.00 C 1225.69 337.59 1239.37 339.48 1247.67 336.67 C 1255.98 333.87 1263.40 332.11 1270.23 327.23 C 1277.06 322.35 1282.63 318.62 1288.25 312.25 C 1293.87 305.87 1297.12 299.43 1300.93 291.93 C 1304.74 284.42 1305.24 272.38 1308.00 266.00
C 1308.91 269.60 1309.79 273.82 1311.00 277.00
C 1316.15 263.40 1318.34 244.68 1324.93 231.93 C 1331.51 219.17 1351.98 205.46 1360.00 221.00
M 1525.00 235.00 
C 1504.07 252.99 1472.76 250.04 1450.00 237.00
C 1454.79 253.42 1433.90 273.20 1420.00 260.00
C 1429.69 261.74 1435.19 251.99 1436.00 244.00
C 1430.85 247.67 1420.48 251.04 1416.00 245.00
C 1424.72 237.84 1435.35 231.40 1439.00 220.00
C 1461.94 240.60 1496.38 247.13 1525.00 235.00
M 902.00 246.00 
C 894.97 251.36 887.61 245.19 881.00 243.00
C 881.44 251.05 886.56 261.38 896.00 261.00
C 881.75 270.50 864.05 251.60 869.00 236.00
C 849.63 247.89 823.95 252.90 803.00 241.00
C 812.33 238.63 827.16 242.42 837.00 241.00 C 846.84 239.58 855.48 234.85 863.69 230.69 C 871.91 226.54 879.21 217.40 883.77 227.23 C 888.33 237.06 896.72 237.39 902.00 246.00
M 918.00 245.00 
C 911.31 257.42 911.25 273.02 919.00 285.00
C 903.90 278.01 902.81 252.58 918.00 245.00
M 1394.00 285.00 
C 1402.98 273.34 1402.42 257.81 1396.00 245.00
C 1409.85 252.32 1409.99 279.54 1394.00 285.00
M 1204.00 345.00 
C 1190.17 363.94 1163.72 341.59 1164.00 323.00
C 1171.92 337.05 1187.43 346.14 1204.00 345.00
M 1109.00 345.00 
C 1124.44 346.83 1139.34 337.99 1147.00 325.00
C 1150.40 342.02 1120.87 364.08 1109.00 345.00
M 1159.00 325.00 
C 1158.60 331.93 1162.23 344.51 1163.93 351.07 C 1165.63 357.64 1162.51 376.12 1154.78 373.22 C 1147.04 370.31 1146.89 354.09 1148.78 347.78 C 1150.67 341.47 1152.24 326.39 1159.00 325.00 Z"/>
</g>
<g fill="#CBB99B" fill-opacity="1.00" stroke="None">
<path d="
M 1157.00 55.00 
C 1140.36 71.36 1147.76 99.50 1157.00 116.00
C 1164.38 97.21 1172.68 72.41 1157.00 55.00 Z"/>
</g>
<g fill="#C8B79A" fill-opacity="1.00" stroke="None">
<path d="
M 1145.00 113.00 
C 1147.82 89.35 1101.57 77.72 1100.00 106.00
C 1113.70 93.45 1133.15 102.60 1145.00 113.00 Z"/>
</g>
<g fill="#C9B89A" fill-opacity="1.00" stroke="None">
<path d="
M 1213.00 106.00 
C 1209.88 77.18 1166.55 91.37 1166.00 115.00
C 1178.22 103.80 1198.21 92.95 1213.00 106.00 Z"/>
</g>
<g fill="#C8B99E" fill-opacity="1.00" stroke="None">
<path d="
M 1051.00 105.00 
C 1038.79 104.15 1028.27 111.81 1020.25 122.25 C 1012.24 132.70 1012.97 149.16 1014.00 161.00
C 1008.09 156.10 1005.39 146.49 1004.00 140.00 C 1002.61 133.51 1009.41 114.97 1000.03 115.03 C 990.64 115.08 992.43 131.91 994.07 137.93 C 995.72 143.94 1002.28 151.98 1005.00 158.00
C 975.32 137.43 932.72 109.12 899.00 139.00
C 921.25 126.24 952.43 130.05 972.92 143.08 C 993.40 156.11 1009.21 168.91 1031.00 178.00
C 1009.50 155.34 1019.58 112.83 1051.00 105.00 Z"/>
</g>
<g fill="#C8B99E" fill-opacity="1.00" stroke="None">
<path d="
M 1299.00 163.00 
C 1300.55 150.98 1301.46 132.58 1292.77 122.23 C 1284.08 111.88 1274.92 103.39 1262.00 105.00
C 1293.15 112.48 1304.42 155.34 1282.00 178.00
C 1305.24 169.24 1321.50 154.74 1343.31 142.31 C 1365.11 129.87 1397.36 125.92 1420.00 140.00
C 1384.61 107.84 1337.71 138.14 1306.00 160.00
C 1310.48 154.77 1317.22 145.17 1319.07 139.07 C 1320.92 132.98 1324.36 115.39 1314.01 115.01 C 1303.66 114.63 1311.63 134.09 1309.98 140.98 C 1308.32 147.86 1303.45 156.92 1299.00 163.00 Z"/>
</g>
<g fill="#E0D9C8" fill-opacity="1.00" stroke="None">
<path d="
M 1219.00 147.00 
C 1216.30 130.01 1230.23 116.55 1246.00 116.00 C 1261.78 115.45 1275.51 126.26 1279.92 141.08 C 1284.34 155.89 1276.89 172.46 1263.77 180.77 C 1250.65 189.08 1232.88 187.25 1218.78 181.22 C 1204.67 175.19 1193.97 168.60 1182.00 159.00
C 1181.47 160.28 1182.97 160.86 1183.00 162.00
C 1183.92 163.24 1185.24 164.87 1186.00 166.00
C 1185.97 164.86 1184.47 164.28 1185.00 163.00
C 1200.71 172.73 1215.02 185.31 1234.00 188.00 C 1252.98 190.69 1273.92 181.17 1281.02 162.02 C 1288.13 142.88 1273.36 120.85 1255.22 115.78 C 1237.08 110.71 1210.69 128.20 1219.00 147.00 Z"/>
</g>
<g fill="#C9B799" fill-opacity="1.00" stroke="None">
<path d="
M 1128.00 165.00 
C 1133.83 157.16 1141.54 149.25 1151.00 146.00
C 1150.43 149.23 1147.15 151.52 1147.00 155.00
C 1150.43 145.82 1158.06 140.89 1164.00 151.00
C 1163.06 148.94 1160.84 147.50 1161.00 145.00
C 1169.38 148.51 1176.90 155.40 1183.00 162.00
C 1182.97 160.86 1181.47 160.28 1182.00 159.00
C 1193.97 168.60 1204.67 175.19 1218.78 181.22 C 1232.88 187.25 1250.65 189.08 1263.77 180.77 C 1276.89 172.46 1284.34 155.89 1279.92 141.08 C 1275.51 126.26 1261.78 115.45 1246.00 116.00 C 1230.23 116.55 1216.30 130.01 1219.00 147.00
C 1220.28 155.88 1231.69 160.37 1239.25 155.25 C 1246.80 150.13 1236.95 136.66 1248.00 137.00 C 1259.05 137.35 1261.72 144.90 1262.00 154.00 C 1262.28 163.09 1257.52 168.71 1249.69 172.69 C 1241.87 176.68 1230.61 174.97 1223.07 171.93 C 1215.54 168.88 1209.12 165.75 1202.70 161.30 C 1196.27 156.86 1189.85 153.72 1183.70 149.30 C 1177.54 144.88 1169.55 142.64 1166.00 136.00
C 1175.34 131.18 1181.72 127.24 1193.00 127.00 C 1204.27 126.77 1206.87 140.73 1201.00 149.00
C 1213.20 147.46 1216.28 127.49 1206.75 120.25 C 1197.21 113.02 1182.46 116.58 1173.01 123.01 C 1163.56 129.43 1150.65 130.81 1141.23 123.77 C 1131.81 116.73 1116.72 112.38 1106.75 118.75 C 1096.78 125.12 1099.87 145.61 1111.00 148.00
C 1104.41 138.51 1110.94 125.28 1122.00 127.00 C 1133.05 128.73 1137.62 131.96 1147.00 137.00
C 1140.48 141.71 1133.94 146.58 1126.70 150.70 C 1119.45 154.81 1113.26 159.45 1106.23 164.23 C 1099.20 169.01 1090.48 172.50 1082.07 174.07 C 1073.67 175.64 1063.65 174.41 1057.25 167.75 C 1050.85 161.09 1050.17 150.83 1055.75 142.75 C 1061.34 134.68 1075.57 135.43 1070.78 145.78 C 1065.99 156.12 1080.70 160.93 1087.92 155.92 C 1095.14 150.90 1096.43 140.00 1091.77 132.23 C 1087.11 124.46 1082.54 118.85 1073.22 116.78 C 1063.90 114.71 1054.41 116.42 1047.08 122.08 C 1039.76 127.75 1035.20 133.03 1032.93 141.93 C 1030.65 150.82 1032.92 161.60 1038.08 168.92 C 1043.24 176.23 1047.54 180.96 1055.98 184.02 C 1064.41 187.09 1076.71 188.50 1085.32 185.32 C 1093.93 182.14 1100.97 178.78 1108.77 174.77 C 1116.57 170.76 1121.64 166.06 1129.00 162.00
C 1129.40 163.25 1128.27 163.98 1128.00 165.00 Z"/>
</g>
<g fill="#868F70" fill-opacity="1.00" stroke="None">
<path d="
M 882.00 192.00 
C 882.00 194.53 881.56 197.51 882.00 200.00
C 887.13 216.02 899.72 231.42 918.00 233.00 C 936.28 234.58 957.56 219.96 950.98 199.03 C 944.39 178.09 910.10 188.78 924.00 210.00
C 894.84 210.08 905.92 169.58 928.00 168.00 C 950.08 166.42 968.30 181.26 980.70 197.30 C 993.09 213.35 1000.40 230.53 1019.00 240.00
C 1021.99 230.85 1028.43 231.63 1018.08 224.92 C 1007.73 218.21 998.12 206.75 991.00 197.00
C 1008.54 208.97 1026.87 221.32 1048.00 225.00
C 1036.71 232.06 1022.81 239.83 1018.98 254.98 C 1015.15 270.12 1018.19 288.14 1027.25 300.75 C 1036.31 313.36 1047.32 319.95 1061.00 325.00
C 1062.00 324.95 1063.73 325.43 1064.00 324.00
C 1059.27 321.22 1056.58 310.88 1061.00 308.00
C 1062.06 325.57 1083.74 330.07 1098.00 326.00
C 1098.00 326.00 1098.53 326.11 1099.00 326.00
C 1092.46 321.19 1080.65 316.68 1084.00 305.00
C 1089.10 314.84 1099.63 323.72 1112.00 321.00
C 1115.26 319.71 1118.85 318.47 1122.00 317.00
C 1123.86 315.90 1126.15 313.46 1128.00 312.00
C 1117.88 312.30 1105.89 305.37 1105.00 294.00
C 1113.43 305.59 1128.77 310.65 1140.00 300.00
C 1140.81 299.02 1142.35 297.87 1143.00 297.00
C 1145.10 292.81 1147.19 288.35 1149.00 284.00
C 1148.85 284.14 1141.26 286.89 1136.99 287.99 C 1132.72 289.10 1126.23 285.41 1123.25 281.75 C 1120.27 278.10 1116.00 273.87 1112.00 272.00
C 1120.49 270.44 1124.14 279.61 1132.70 282.30 C 1141.25 285.00 1148.64 276.58 1153.00 270.00
C 1153.09 268.68 1152.99 267.32 1153.00 266.00
C 1153.01 263.67 1152.99 261.33 1153.00 259.00
C 1137.03 270.29 1125.92 248.05 1111.00 248.00
C 1118.39 242.66 1127.70 247.76 1134.03 252.97 C 1140.36 258.19 1156.26 257.08 1153.00 245.00
C 1153.20 229.88 1141.60 218.95 1133.00 208.00
C 1148.94 195.10 1142.46 172.53 1147.00 155.00
C 1147.15 151.52 1150.43 149.23 1151.00 146.00
C 1141.54 149.25 1133.83 157.16 1128.00 165.00
C 1116.29 180.75 1105.49 195.11 1084.67 198.67 C 1063.85 202.23 1040.99 195.25 1023.23 185.77 C 1005.47 176.29 992.05 167.33 975.08 156.92 C 958.10 146.52 933.26 140.05 914.08 147.08 C 894.89 154.10 882.00 171.72 882.00 192.00
M 1059.00 263.00 
C 1062.79 275.16 1080.33 269.98 1084.30 259.30 C 1088.28 248.63 1084.80 236.09 1075.00 229.00
C 1091.92 222.67 1097.12 239.79 1098.00 253.00 C 1098.88 266.21 1091.53 278.20 1080.32 284.32 C 1069.11 290.44 1052.18 290.08 1044.25 278.75 C 1036.31 267.42 1035.55 253.34 1048.70 244.70 C 1061.85 236.06 1078.78 258.27 1059.00 263.00 Z"/>
</g>
<g fill="#879070" fill-opacity="1.00" stroke="None">
<path d="
M 1186.00 166.00 
C 1185.24 164.87 1183.92 163.24 1183.00 162.00
C 1176.90 155.40 1169.38 148.51 1161.00 145.00
C 1160.84 147.50 1163.06 148.94 1164.00 151.00
C 1170.81 170.27 1164.76 193.86 1180.00 210.00
C 1168.92 218.20 1161.72 229.81 1160.00 243.00
C 1159.07 250.11 1157.08 255.49 1168.00 256.00 C 1178.92 256.51 1192.27 238.06 1202.00 249.00
C 1186.47 246.96 1174.07 271.96 1159.00 258.00
C 1159.00 260.33 1159.00 262.67 1159.00 265.00
C 1159.47 267.42 1159.61 269.56 1160.00 272.00
C 1162.83 278.71 1173.59 285.13 1180.67 282.67 C 1187.75 280.21 1193.16 269.01 1201.00 272.00
C 1193.07 275.87 1188.12 287.06 1178.99 287.99 C 1169.86 288.92 1169.62 284.50 1165.00 286.00
C 1167.18 290.41 1168.95 294.90 1172.00 299.00
C 1183.00 310.66 1199.32 306.02 1208.00 294.00
C 1206.72 305.13 1194.08 310.37 1185.00 312.00
C 1197.83 326.52 1223.27 321.93 1229.00 303.00
C 1231.82 312.01 1222.93 324.45 1213.00 325.00
C 1213.74 327.20 1217.33 324.69 1218.00 327.00
C 1221.70 327.56 1225.03 328.00 1229.00 328.00
C 1237.96 326.72 1248.25 321.10 1252.00 312.00
C 1255.09 315.54 1250.03 319.83 1251.00 324.00
C 1252.33 324.00 1253.67 324.00 1255.00 324.00
C 1275.12 316.13 1290.09 300.85 1295.22 279.22 C 1300.35 257.59 1286.27 233.56 1266.00 225.00
C 1286.40 221.39 1303.88 209.12 1322.00 200.00
C 1313.26 211.72 1301.89 222.50 1289.00 229.00
C 1290.89 240.04 1299.76 241.06 1305.75 233.75 C 1311.74 226.45 1316.66 223.63 1321.70 216.70 C 1326.73 209.77 1330.82 203.53 1336.25 197.25 C 1341.68 190.97 1346.71 186.45 1352.92 180.92 C 1359.12 175.39 1366.80 171.41 1374.99 168.99 C 1383.18 166.57 1394.83 167.71 1401.75 173.25 C 1408.67 178.79 1414.18 186.60 1412.33 195.33 C 1410.47 204.06 1403.62 211.18 1394.00 210.00
C 1408.65 189.20 1373.38 177.75 1366.98 198.98 C 1360.57 220.20 1380.91 233.08 1399.00 232.00 C 1417.09 230.92 1430.94 218.18 1435.00 201.00
C 1435.79 197.66 1436.00 194.63 1436.00 191.00
C 1436.00 164.33 1412.24 143.55 1386.00 144.00 C 1359.76 144.45 1338.59 158.51 1316.70 171.70 C 1294.80 184.88 1273.83 196.28 1247.67 199.67 C 1221.51 203.06 1199.86 186.73 1186.00 166.00
M 1236.00 230.00 
C 1227.05 237.13 1223.94 249.79 1228.31 259.69 C 1232.67 269.60 1249.59 275.33 1253.00 263.00
C 1233.78 259.13 1250.22 236.56 1263.02 243.98 C 1275.83 251.39 1277.03 266.32 1269.70 277.70 C 1262.36 289.07 1245.04 290.66 1233.78 285.22 C 1222.51 279.79 1214.97 267.16 1215.00 255.00 C 1215.03 242.84 1219.84 221.53 1236.00 230.00 Z"/>
</g>
<g fill="#C8B799" fill-opacity="1.00" stroke="None">
<path d="
M 882.00 200.00 
C 881.56 197.51 882.00 194.53 882.00 192.00
C 866.28 209.27 843.44 219.51 820.67 217.33 C 797.91 215.14 778.67 182.77 801.00 169.00
C 789.99 183.47 812.30 197.55 820.69 184.69 C 829.09 171.84 818.80 156.86 806.00 155.00 C 793.20 153.14 780.82 162.38 776.32 174.32 C 771.82 186.26 774.92 201.88 783.25 211.75 C 791.58 221.62 802.70 227.11 814.78 229.22 C 826.86 231.33 845.05 228.04 854.31 221.31 C 863.56 214.57 879.00 212.13 882.00 200.00 Z"/>
</g>
<g fill="#C8B698" fill-opacity="1.00" stroke="None">
<path d="
M 1436.00 191.00 
C 1436.00 194.63 1435.79 197.66 1435.00 201.00
C 1445.87 210.15 1455.98 218.21 1469.32 223.68 C 1482.66 229.15 1503.94 231.57 1517.32 225.32 C 1530.70 219.07 1540.18 210.11 1543.67 195.67 C 1547.16 181.23 1540.65 161.84 1525.68 157.32 C 1510.70 152.80 1490.99 161.45 1496.08 179.92 C 1501.16 198.40 1528.83 186.46 1517.00 169.00
C 1528.54 170.31 1528.87 184.08 1526.99 192.99 C 1525.12 201.91 1518.40 207.87 1510.70 212.69 C 1502.99 217.52 1489.53 219.08 1481.00 217.00 C 1472.47 214.92 1460.87 212.88 1454.75 207.25 C 1448.62 201.63 1438.37 198.82 1436.00 191.00 Z"/>
</g>
<g fill="#C9B89C" fill-opacity="1.00" stroke="None">
<path d="
M 1157.00 181.00 
C 1154.98 188.31 1150.99 198.94 1146.31 205.30 C 1141.63 211.67 1157.00 219.78 1157.00 226.00
C 1158.59 218.64 1164.26 213.08 1168.00 207.00
C 1159.71 200.91 1159.31 189.94 1157.00 181.00 Z"/>
</g>
<g fill="#CAB89A" fill-opacity="1.00" stroke="None">
<path d="
M 124.00 210.00 
C 133.93 211.92 146.76 212.01 157.00 213.00
C 363.06 215.42 568.98 218.45 775.00 221.00
C 772.50 214.25 766.44 208.60 766.00 201.00
C 552.03 202.05 338.05 210.00 124.00 210.00 Z"/>
</g>
<g fill="#CAB89B" fill-opacity="1.00" stroke="None">
<path d="
M 2307.00 211.00 
C 2292.14 211.86 2277.59 210.04 2263.00 210.00 C 2248.41 209.96 2234.30 210.09 2220.00 209.00 C 2205.70 207.91 2190.41 209.71 2176.00 209.00 C 2161.59 208.29 2147.65 207.89 2133.00 208.00 C 2118.35 208.11 2103.06 208.32 2088.67 207.33 C 2074.28 206.34 2059.53 207.30 2045.00 207.00 C 2030.47 206.70 2015.50 207.28 2001.00 207.00 C 1986.50 206.72 1972.71 205.38 1958.00 206.00 C 1943.29 206.62 1929.69 204.73 1915.00 205.00 C 1900.31 205.27 1884.70 204.76 1870.00 205.00 C 1855.30 205.24 1841.53 204.27 1827.00 204.00 C 1812.47 203.73 1797.42 204.70 1783.00 204.00 C 1768.58 203.30 1754.78 202.42 1740.00 203.00 C 1725.22 203.58 1710.70 201.99 1696.00 202.00 C 1681.30 202.01 1666.75 202.06 1652.00 202.00 C 1637.25 201.94 1623.60 202.48 1609.00 201.00 C 1594.40 199.52 1579.93 203.22 1565.00 201.00 C 1550.07 198.78 1549.35 212.05 1542.00 222.00
C 1796.87 218.06 2052.85 216.47 2307.00 211.00 Z"/>
</g>
<g fill="#D0C9B9" fill-opacity="1.00" stroke="None">
<path d="
M 157.00 213.00 
C 146.76 212.01 133.93 211.92 124.00 210.00
C 108.04 210.51 90.89 208.56 76.00 212.00
C 103.27 211.38 129.88 213.00 157.00 213.00 Z"/>
</g>
<g fill="#C8B89E" fill-opacity="1.00" stroke="None">
<path d="
M 1002.00 276.00 
C 996.65 262.49 994.82 244.11 988.31 231.70 C 981.79 219.28 964.53 205.37 956.00 221.00
C 976.63 216.17 990.89 238.59 991.00 255.00
C 982.42 242.06 968.35 231.02 952.02 233.02 C 935.70 235.03 922.38 248.62 924.02 265.98 C 925.67 283.34 943.39 294.04 959.25 284.25 C 975.11 274.46 960.46 243.73 947.00 262.00
C 965.92 259.66 955.58 285.21 943.08 278.92 C 930.57 272.64 929.53 260.67 936.25 250.25 C 942.97 239.82 958.30 237.28 968.31 242.70 C 978.31 248.11 984.62 255.42 990.03 264.98 C 995.43 274.53 998.78 284.82 1005.00 294.00
C 992.57 283.28 962.57 276.23 959.00 299.00
C 982.91 282.70 1007.53 302.33 1025.25 319.75 C 1042.96 337.17 1075.31 346.85 1098.98 340.98 C 1122.65 335.10 1147.30 321.70 1151.00 297.00
C 1138.06 330.37 1095.71 344.38 1063.02 335.98 C 1030.34 327.58 1005.05 296.62 1006.00 263.00
C 1004.48 267.24 1003.94 272.23 1002.00 276.00 Z"/>
</g>
<g fill="#C8B89C" fill-opacity="1.00" stroke="None">
<path d="
M 1360.00 221.00 
C 1351.98 205.46 1331.51 219.17 1324.93 231.93 C 1318.34 244.68 1316.15 263.40 1311.00 277.00
C 1309.79 273.82 1308.91 269.60 1308.00 266.00
C 1305.24 272.38 1304.74 284.42 1300.93 291.93 C 1297.12 299.43 1293.87 305.87 1288.25 312.25 C 1282.63 318.62 1277.06 322.35 1270.23 327.23 C 1263.40 332.11 1255.98 333.87 1247.67 336.67 C 1239.37 339.48 1225.69 337.59 1217.00 337.00 C 1208.31 336.41 1198.88 333.64 1191.70 329.30 C 1184.52 324.96 1178.75 320.88 1172.75 315.25 C 1166.75 309.61 1164.89 301.81 1160.00 296.00
C 1171.21 336.06 1220.72 348.18 1255.98 337.98 C 1291.23 327.77 1312.04 278.91 1353.00 297.00
C 1346.97 276.36 1320.19 284.83 1308.00 294.00
C 1313.53 284.70 1317.82 274.50 1323.23 265.23 C 1328.64 255.96 1334.92 247.80 1344.77 242.77 C 1354.62 237.74 1369.95 239.16 1376.75 249.25 C 1383.54 259.35 1383.37 272.41 1371.02 279.02 C 1358.68 285.64 1347.17 260.32 1366.00 262.00
C 1352.52 244.22 1337.45 274.11 1353.77 284.23 C 1370.10 294.35 1388.02 282.77 1389.00 265.00 C 1389.98 247.23 1375.55 233.87 1359.00 233.00 C 1342.45 232.13 1330.06 243.68 1321.00 256.00
C 1322.66 237.15 1339.01 217.31 1360.00 221.00 Z"/>
</g>
<g fill="#CBBBA0" fill-opacity="1.00" stroke="None">
<path d="
M 1525.00 235.00 
C 1496.38 247.13 1461.94 240.60 1439.00 220.00
C 1435.35 231.40 1424.72 237.84 1416.00 245.00
C 1420.48 251.04 1430.85 247.67 1436.00 244.00
C 1435.19 251.99 1429.69 261.74 1420.00 260.00
C 1433.90 273.20 1454.79 253.42 1450.00 237.00
C 1472.76 250.04 1504.07 252.99 1525.00 235.00 Z"/>
</g>
<g fill="#C9B89D" fill-opacity="1.00" stroke="None">
<path d="
M 902.00 246.00 
C 896.72 237.39 888.33 237.06 883.77 227.23 C 879.21 217.40 871.91 226.54 863.69 230.69 C 855.48 234.85 846.84 239.58 837.00 241.00 C 827.16 242.42 812.33 238.63 803.00 241.00
C 823.95 252.90 849.63 247.89 869.00 236.00
C 864.05 251.60 881.75 270.50 896.00 261.00
C 886.56 261.38 881.44 251.05 881.00 243.00
C 887.61 245.19 894.97 251.36 902.00 246.00 Z"/>
</g>
<g fill="#F5F6EF" fill-opacity="1.00" stroke="None">
<path d="
M 1059.00 263.00 
C 1078.78 258.27 1061.85 236.06 1048.70 244.70 C 1035.55 253.34 1036.31 267.42 1044.25 278.75 C 1052.18 290.08 1069.11 290.44 1080.32 284.32 C 1091.53 278.20 1098.88 266.21 1098.00 253.00 C 1097.12 239.79 1091.92 222.67 1075.00 229.00
C 1084.80 236.09 1088.28 248.63 1084.30 259.30 C 1080.33 269.98 1062.79 275.16 1059.00 263.00 Z"/>
</g>
<g fill="#F6F6F0" fill-opacity="1.00" stroke="None">
<path d="
M 1236.00 230.00 
C 1219.84 221.53 1215.03 242.84 1215.00 255.00 C 1214.97 267.16 1222.51 279.79 1233.78 285.22 C 1245.04 290.66 1262.36 289.07 1269.70 277.70 C 1277.03 266.32 1275.83 251.39 1263.02 243.98 C 1250.22 236.56 1233.78 259.13 1253.00 263.00
C 1249.59 275.33 1232.67 269.60 1228.31 259.69 C 1223.94 249.79 1227.05 237.13 1236.00 230.00 Z"/>
</g>
<g fill="#B8AD8F" fill-opacity="1.00" stroke="None">
<path d="
M 1159.00 265.00 
C 1159.00 262.67 1159.00 260.33 1159.00 258.00
C 1174.07 271.96 1186.47 246.96 1202.00 249.00
C 1192.27 238.06 1178.92 256.51 1168.00 256.00 C 1157.08 255.49 1159.07 250.11 1160.00 243.00
C 1158.32 250.11 1157.56 257.53 1159.00 265.00 Z"/>
</g>
<g fill="#CABDA5" fill-opacity="1.00" stroke="None">
<path d="
M 918.00 245.00 
C 902.81 252.58 903.90 278.01 919.00 285.00
C 911.25 273.02 911.31 257.42 918.00 245.00 Z"/>
</g>
<g fill="#B5AA8B" fill-opacity="1.00" stroke="None">
<path d="
M 1153.00 266.00 
C 1153.90 259.43 1153.95 251.64 1153.00 245.00
C 1156.26 257.08 1140.36 258.19 1134.03 252.97 C 1127.70 247.76 1118.39 242.66 1111.00 248.00
C 1125.92 248.05 1137.03 270.29 1153.00 259.00
C 1152.99 261.33 1153.01 263.67 1153.00 266.00 Z"/>
</g>
<g fill="#CABCA3" fill-opacity="1.00" stroke="None">
<path d="
M 1394.00 285.00 
C 1409.99 279.54 1409.85 252.32 1396.00 245.00
C 1402.42 257.81 1402.98 273.34 1394.00 285.00 Z"/>
</g>
<g fill="#BBB090" fill-opacity="1.00" stroke="None">
<path d="
M 1149.00 284.00 
C 1150.79 279.70 1152.64 275.10 1153.00 270.00
C 1148.64 276.58 1141.25 285.00 1132.70 282.30 C 1124.14 279.61 1120.49 270.44 1112.00 272.00
C 1116.00 273.87 1120.27 278.10 1123.25 281.75 C 1126.23 285.41 1132.72 289.10 1136.99 287.99 C 1141.26 286.89 1148.85 284.14 1149.00 284.00 Z"/>
</g>
<g fill="#BCB192" fill-opacity="1.00" stroke="None">
<path d="
M 1160.00 272.00 
C 1160.89 277.62 1162.63 281.20 1165.00 286.00
C 1169.62 284.50 1169.86 288.92 1178.99 287.99 C 1188.12 287.06 1193.07 275.87 1201.00 272.00
C 1193.16 269.01 1187.75 280.21 1180.67 282.67 C 1173.59 285.13 1162.83 278.71 1160.00 272.00 Z"/>
</g>
<g fill="#B5AA8A" fill-opacity="1.00" stroke="None">
<path d="
M 1128.00 312.00 
C 1132.38 308.54 1136.49 304.23 1140.00 300.00
C 1128.77 310.65 1113.43 305.59 1105.00 294.00
C 1105.89 305.37 1117.88 312.30 1128.00 312.00 Z"/>
</g>
<g fill="#B6AC8F" fill-opacity="1.00" stroke="None">
<path d="
M 1172.00 299.00 
C 1183.55 314.53 1199.29 324.15 1218.00 327.00
C 1217.33 324.69 1213.74 327.20 1213.00 325.00
C 1222.93 324.45 1231.82 312.01 1229.00 303.00
C 1223.27 321.93 1197.83 326.52 1185.00 312.00
C 1194.08 310.37 1206.72 305.13 1208.00 294.00
C 1199.32 306.02 1183.00 310.66 1172.00 299.00 Z"/>
</g>
<g fill="#D1CEBF" fill-opacity="1.00" stroke="None">
<path d="
M 1140.00 300.00 
C 1136.49 304.23 1132.38 308.54 1128.00 312.00
C 1126.15 313.46 1123.86 315.90 1122.00 317.00
C 1129.39 313.54 1139.35 304.30 1143.00 297.00
C 1142.35 297.87 1140.81 299.02 1140.00 300.00 Z"/>
</g>
<g fill="#B7AD8F" fill-opacity="1.00" stroke="None">
<path d="
M 1099.00 326.00 
C 1103.46 324.95 1108.01 322.59 1112.00 321.00
C 1099.63 323.72 1089.10 314.84 1084.00 305.00
C 1080.65 316.68 1092.46 321.19 1099.00 326.00 Z"/>
</g>
<g fill="#B1AB90" fill-opacity="1.00" stroke="None">
<path d="
M 1061.00 325.00 
C 1065.79 326.77 1073.27 329.49 1079.00 328.00 C 1084.73 326.51 1094.13 331.05 1098.00 326.00
C 1083.74 330.07 1062.06 325.57 1061.00 308.00
C 1056.58 310.88 1059.27 321.22 1064.00 324.00
C 1063.73 325.43 1062.00 324.95 1061.00 325.00 Z"/>
</g>
<g fill="#B7B096" fill-opacity="1.00" stroke="None">
<path d="
M 1229.00 328.00 
C 1238.64 328.00 1246.78 327.89 1255.00 324.00
C 1253.67 324.00 1252.33 324.00 1251.00 324.00
C 1250.03 319.83 1255.09 315.54 1252.00 312.00
C 1248.25 321.10 1237.96 326.72 1229.00 328.00 Z"/>
</g>
<g fill="#C7B79B" fill-opacity="1.00" stroke="None">
<path d="
M 1204.00 345.00 
C 1187.43 346.14 1171.92 337.05 1164.00 323.00
C 1163.72 341.59 1190.17 363.94 1204.00 345.00 Z"/>
</g>
<g fill="#C8B99E" fill-opacity="1.00" stroke="None">
<path d="
M 1109.00 345.00 
C 1120.87 364.08 1150.40 342.02 1147.00 325.00
C 1139.34 337.99 1124.44 346.83 1109.00 345.00 Z"/>
</g>
<g fill="#CCBCA1" fill-opacity="1.00" stroke="None">
<path d="
M 1159.00 325.00 
C 1152.24 326.39 1150.67 341.47 1148.78 347.78 C 1146.89 354.09 1147.04 370.31 1154.78 373.22 C 1162.51 376.12 1165.63 357.64 1163.93 351.07 C 1162.23 344.51 1158.60 331.93 1159.00 325.00 Z"/>
</g>
</svg>