<svg xmlns="http://www.w3.org/2000/svg" xmlns:v="https://svgstorm.com"
viewBox = "0 0 2369 422"
width="2369"
height="422">
<g fill="None" fill-opacity="0.0" stroke="#FAFAF5" stroke-opacity="1.00" stroke-width="0.3"><path d="
M 0.00 422.00 
L 2369.00 422.00
L 2369.00 0.00
L 0.00 0.00
L 0.00 422.00
M 1184.00 53.00 
C 1196.87 65.73 1190.56 88.36 1182.00 100.00
C 1177.63 86.12 1167.39 62.87 1184.00 53.00
M 1175.00 105.00 
C 1166.11 91.10 1151.04 81.26 1134.00 83.00
C 1145.88 60.45 1176.79 85.61 1175.00 105.00
M 1232.00 83.00 
C 1215.62 81.17 1200.51 90.29 1192.00 104.00
C 1188.10 85.97 1220.16 60.40 1232.00 83.00
M 1179.00 131.00 
C 1163.51 97.43 1122.70 83.17 1088.33 91.33 C 1053.96 99.49 1027.89 130.86 1028.00 166.00
C 1025.00 161.39 1028.08 152.77 1024.00 150.00
C 1020.59 159.62 1016.48 170.73 1013.23 180.23 C 1009.98 189.73 1005.09 199.08 998.25 206.25 C 991.41 213.42 975.35 221.15 972.00 209.00
C 992.51 212.22 1010.28 190.44 1011.00 173.00
C 1001.65 186.60 989.96 195.82 973.00 196.00 C 956.04 196.18 941.43 182.97 943.00 165.00 C 944.57 147.03 961.82 136.74 978.70 146.31 C 995.57 155.87 978.21 186.99 965.00 168.00
C 983.43 174.16 976.77 145.55 963.33 150.33 C 949.89 155.12 947.49 169.79 954.31 180.69 C 961.12 191.60 978.16 191.67 988.08 186.08 C 998.00 180.49 1004.94 172.75 1011.25 163.25 C 1017.55 153.75 1022.19 142.67 1028.00 133.00
C 1015.41 144.34 986.38 155.53 979.00 133.00
C 1020.16 151.13 1041.79 102.38 1077.68 90.68 C 1113.56 78.98 1166.18 89.81 1179.00 131.00
M 1388.00 131.00 
C 1385.26 155.96 1352.57 146.54 1340.00 135.00
C 1346.06 143.91 1349.87 154.26 1355.77 163.23 C 1361.67 172.20 1368.07 180.15 1377.70 185.30 C 1387.32 190.46 1402.99 191.32 1410.25 181.25 C 1417.51 171.18 1417.85 158.47 1404.92 152.08 C 1392.00 145.68 1382.40 171.58 1402.00 168.00
C 1389.52 186.09 1371.38 159.81 1386.25 148.25 C 1401.11 136.69 1419.61 145.53 1422.99 162.01 C 1426.37 178.49 1417.04 194.32 1399.98 196.98 C 1382.91 199.63 1368.09 191.31 1358.00 180.00
C 1362.44 196.19 1377.51 211.36 1396.00 209.00
C 1386.97 224.47 1368.22 209.12 1359.70 197.30 C 1351.17 185.49 1347.69 166.37 1342.00 153.00
C 1340.62 159.02 1340.09 166.11 1337.00 172.00
C 1342.16 135.21 1315.47 101.07 1279.99 92.01 C 1244.52 82.95 1202.05 96.27 1187.00 132.00
C 1194.06 106.92 1216.26 90.40 1242.07 86.07 C 1267.88 81.74 1301.18 91.47 1319.70 109.30 C 1338.21 127.13 1363.18 147.50 1388.00 131.00
M 1120.00 101.00 
C 1120.98 101.00 1122.03 100.90 1123.00 101.00
C 1128.09 101.53 1133.58 105.24 1138.00 107.00
C 1143.19 109.06 1148.39 112.00 1153.00 115.00
C 1158.09 118.31 1162.93 124.04 1166.00 129.00
C 1169.20 134.17 1171.70 139.47 1174.00 145.00
C 1175.83 149.40 1178.06 153.96 1179.00 159.00
C 1179.09 159.48 1179.00 160.00 1179.00 160.00
C 1184.10 166.28 1181.18 183.29 1179.00 190.00
C 1176.57 201.93 1170.24 213.44 1160.00 221.00
C 1175.20 235.06 1169.11 257.33 1175.00 275.00
C 1181.93 286.67 1191.59 281.07 1195.00 270.00
C 1198.21 254.22 1192.83 234.33 1207.00 223.00
C 1194.87 211.42 1186.05 196.89 1186.00 180.00
C 1185.64 174.67 1184.99 169.94 1186.00 165.00
C 1186.41 162.98 1186.51 161.03 1187.00 159.00
C 1188.21 153.99 1190.18 148.48 1192.00 144.00
C 1194.83 137.05 1198.72 131.87 1203.00 126.00
C 1205.35 122.77 1207.60 119.68 1211.00 117.00
C 1215.67 113.31 1220.27 109.55 1226.00 108.00
C 1231.16 105.85 1236.23 103.24 1242.00 102.00
C 1249.69 100.35 1256.13 100.26 1264.00 101.00
C 1268.87 101.46 1273.37 100.85 1278.00 102.00
C 1322.14 112.93 1350.05 179.19 1300.00 202.00
C 1321.85 208.22 1342.59 219.57 1362.00 232.00
C 1351.96 218.38 1337.91 206.51 1323.00 199.00
C 1326.30 195.31 1328.69 190.69 1333.00 188.00
C 1350.17 201.13 1359.36 214.76 1373.30 231.70 C 1387.25 248.63 1404.72 261.50 1428.00 261.00 C 1451.28 260.50 1463.49 220.94 1433.00 220.00
C 1447.37 241.21 1411.24 252.33 1405.08 230.92 C 1398.91 209.52 1419.17 196.14 1438.00 197.00 C 1456.83 197.86 1470.51 211.14 1475.00 229.00
C 1484.36 220.69 1493.16 215.43 1504.23 209.23 C 1515.30 203.03 1531.58 199.14 1545.00 201.00 C 1558.42 202.86 1567.57 208.46 1577.25 217.75 C 1586.93 227.05 1589.82 241.60 1586.22 254.22 C 1582.62 266.84 1571.31 275.48 1558.00 275.00 C 1544.69 274.52 1531.55 262.37 1539.93 247.93 C 1548.30 233.48 1570.86 247.44 1560.00 262.00
C 1578.13 257.15 1573.35 234.66 1561.25 223.75 C 1549.15 212.84 1526.55 211.29 1511.32 216.32 C 1496.09 221.36 1485.23 229.74 1475.00 242.00
C 1474.21 262.85 1457.67 280.07 1437.33 284.33 C 1416.99 288.59 1392.67 280.67 1374.92 270.08 C 1357.17 259.48 1342.64 250.53 1323.77 241.23 C 1304.90 231.92 1280.78 225.09 1258.98 227.98 C 1237.17 230.86 1225.02 245.84 1214.00 263.00
C 1220.57 259.13 1228.22 254.51 1236.23 249.23 C 1244.24 243.95 1253.90 240.87 1264.01 239.01 C 1274.11 237.14 1287.58 242.04 1296.00 244.00
C 1298.00 252.15 1309.24 255.91 1310.00 265.00
C 1311.49 273.32 1311.06 282.51 1308.08 290.08 C 1305.09 297.64 1300.50 301.81 1293.31 305.31 C 1286.11 308.80 1276.87 310.12 1268.93 308.07 C 1260.98 306.02 1256.32 302.09 1251.23 295.77 C 1246.14 289.45 1247.86 277.99 1251.75 272.75 C 1255.64 267.52 1272.10 265.55 1270.92 275.08 C 1269.75 284.61 1273.31 292.55 1283.69 287.69 C 1294.08 282.84 1292.07 275.70 1291.02 267.98 C 1289.98 260.25 1283.54 254.63 1276.32 252.68 C 1269.11 250.72 1256.77 252.14 1249.93 254.93 C 1243.09 257.71 1237.53 261.60 1231.25 265.25 C 1224.98 268.91 1219.12 273.20 1212.77 276.77 C 1206.43 280.34 1200.32 284.33 1194.00 288.00
C 1201.67 294.64 1208.10 295.77 1218.22 298.78 C 1228.35 301.78 1237.91 288.72 1232.00 279.00
C 1241.23 282.31 1244.22 301.44 1233.30 305.30 C 1222.39 309.16 1210.17 306.17 1200.00 301.00 C 1189.82 295.84 1181.30 293.18 1170.78 299.78 C 1160.25 306.37 1150.62 307.39 1138.78 305.22 C 1126.94 303.05 1126.10 286.15 1135.00 279.00
C 1132.18 289.03 1137.58 299.34 1149.00 298.00 C 1160.42 296.66 1166.11 293.81 1176.00 289.00
C 1165.82 281.84 1156.15 276.89 1145.77 269.23 C 1135.39 261.58 1124.08 257.00 1111.32 252.68 C 1098.56 248.36 1083.98 252.69 1078.08 266.08 C 1072.17 279.46 1088.58 298.22 1100.00 285.00
C 1087.84 266.71 1120.52 262.64 1121.00 281.00 C 1121.47 299.37 1108.25 308.23 1092.00 309.00 C 1075.75 309.77 1062.41 299.46 1059.01 283.99 C 1055.61 268.53 1061.73 253.88 1075.23 245.23 C 1088.73 236.58 1107.54 237.70 1121.07 243.93 C 1134.61 250.15 1144.24 259.24 1156.00 265.00
C 1141.54 243.07 1122.25 224.41 1094.00 227.00 C 1065.75 229.59 1044.24 241.32 1020.77 254.77 C 997.30 268.22 978.61 281.30 951.78 285.78 C 924.94 290.26 896.05 269.59 895.00 242.00
C 891.18 231.65 877.98 228.32 869.75 221.25 C 861.52 214.17 843.75 212.85 832.78 213.78 C 821.81 214.70 809.33 220.23 803.23 230.23 C 797.13 240.23 795.99 258.94 810.00 262.00
C 798.51 245.99 824.52 232.00 831.77 249.23 C 839.02 266.46 820.26 277.83 805.33 274.67 C 790.40 271.51 781.94 256.70 783.00 242.00 C 784.06 227.30 791.17 215.65 804.23 208.23 C 817.29 200.81 835.23 198.56 850.00 203.00
C 855.48 204.64 861.60 206.72 866.69 209.31 C 871.79 211.89 877.35 215.60 882.23 217.77 C 887.11 219.94 890.06 228.35 895.00 229.00
C 895.13 228.65 895.93 228.24 896.00 228.00
C 899.56 210.19 914.79 196.96 933.00 197.00 C 951.21 197.04 970.85 210.18 965.07 231.07 C 959.30 251.97 922.10 241.52 937.00 220.00
C 928.00 218.52 919.84 225.55 918.22 234.22 C 916.60 242.90 921.90 252.11 929.23 256.77 C 936.56 261.43 949.71 262.80 958.02 260.02 C 966.34 257.25 973.37 253.43 979.75 247.75 C 986.12 242.06 991.10 236.85 996.25 230.25 C 1001.40 223.65 1006.50 218.77 1011.75 211.75 C 1017.01 204.73 1022.09 201.81 1028.25 194.25 C 1034.41 186.69 1040.81 189.66 1045.00 199.00
C 1030.50 206.68 1016.76 218.57 1007.00 232.00
C 1026.04 220.19 1045.98 208.51 1067.00 202.00
C 1042.73 195.92 1034.16 164.96 1041.92 143.92 C 1049.69 122.89 1068.07 106.13 1090.00 102.00
C 1099.20 100.22 1110.63 98.94 1120.00 101.00
M 1430.00 185.00 
C 1438.12 173.22 1437.76 156.76 1428.00 146.00
C 1444.80 151.08 1444.64 177.87 1430.00 185.00
M 936.00 148.00 
C 930.13 159.64 929.28 173.85 937.00 185.00
C 923.36 178.99 921.08 154.26 936.00 148.00
M 912.00 170.00 
C 902.42 169.68 892.91 178.66 894.00 189.00
C 899.88 186.24 909.44 178.39 915.00 186.00
C 906.56 194.08 894.58 199.71 892.00 212.00
C 869.34 189.11 833.29 184.16 804.00 196.00
C 826.28 178.01 858.24 182.96 882.00 195.00
C 878.15 178.37 896.15 159.20 912.00 170.00
M 1488.00 195.00 
C 1509.78 184.85 1538.18 177.75 1560.00 192.00
C 1546.71 191.62 1526.79 187.59 1512.98 191.98 C 1499.16 196.36 1489.59 202.76 1478.00 211.00
C 1476.02 198.67 1461.77 194.14 1455.00 185.00
C 1462.13 179.81 1470.12 185.26 1476.00 189.00
C 1477.50 178.73 1468.58 169.52 1459.00 170.00
C 1474.92 158.82 1492.46 178.38 1488.00 195.00
M 1184.00 206.00 
C 1186.05 211.57 1188.71 217.57 1194.00 221.00
C 1189.41 228.69 1185.97 237.13 1184.00 246.00
C 1180.01 238.45 1179.63 227.78 1172.00 222.00
C 1177.51 217.44 1179.61 210.82 1184.00 206.00
M 786.00 211.00 
C 780.50 216.97 776.33 224.10 775.00 232.00
C 545.82 229.38 316.85 225.94 88.00 222.00
C 319.79 216.44 553.44 214.82 786.00 211.00
M 2309.00 221.00 
C 2072.54 227.84 1833.74 228.91 1596.00 232.00
C 1594.26 224.37 1589.08 217.98 1586.00 211.00
C 1826.91 214.72 2067.94 217.88 2309.00 221.00
M 1059.00 247.00 
C 1050.30 258.82 1041.78 275.01 1046.00 290.00 C 1050.21 304.99 1059.76 314.93 1074.00 320.00
C 1062.43 321.83 1054.53 312.19 1046.70 303.30 C 1038.87 294.41 1038.39 277.84 1039.00 267.00
C 1034.35 272.04 1030.04 281.83 1029.01 288.01 C 1027.98 294.19 1035.36 311.45 1024.98 310.97 C 1014.59 310.50 1017.96 294.31 1019.00 288.00 C 1020.04 281.69 1028.52 273.81 1031.00 268.00
C 996.07 292.58 938.86 324.65 903.00 283.00
C 925.53 304.87 962.57 301.27 987.68 287.68 C 1012.79 274.09 1032.84 257.16 1059.00 247.00
M 1462.00 287.00 
C 1425.45 322.49 1372.46 291.05 1338.00 268.00
C 1343.52 273.25 1347.72 282.32 1350.32 288.68 C 1352.93 295.04 1353.95 313.44 1342.99 311.99 C 1332.03 310.54 1340.84 295.13 1340.00 288.00 C 1339.16 280.87 1334.64 270.52 1329.00 265.00
C 1330.70 276.71 1330.81 293.49 1322.75 303.75 C 1314.68 314.00 1304.19 321.96 1292.00 321.00
C 1305.90 316.12 1316.42 308.50 1321.92 293.92 C 1327.43 279.35 1321.91 261.19 1313.00 249.00
C 1337.70 258.72 1356.27 274.46 1380.08 286.92 C 1403.89 299.38 1438.76 305.93 1462.00 287.00
M 1175.00 307.00 
C 1174.39 332.11 1129.07 346.85 1125.00 316.00
C 1140.45 328.37 1162.43 320.03 1175.00 307.00
M 1241.00 319.00 
C 1236.08 346.05 1195.08 331.16 1194.00 309.00
C 1206.53 320.18 1225.22 327.70 1241.00 319.00
M 1183.00 312.00 
C 1189.67 316.49 1187.53 324.04 1191.32 331.68 C 1195.11 339.32 1192.62 348.16 1190.25 356.25 C 1187.87 364.33 1181.43 368.03 1178.23 358.77 C 1175.03 349.51 1173.70 342.72 1176.00 334.00 C 1178.29 325.27 1180.74 320.37 1183.00 312.00 Z"/>
</g>
<g fill="None" fill-opacity="0.0" stroke="#CCBDA0" stroke-opacity="1.00" stroke-width="0.3"><path d="
M 1184.00 53.00 
C 1167.39 62.87 1177.63 86.12 1182.00 100.00
C 1190.56 88.36 1196.87 65.73 1184.00 53.00 Z"/>
</g>
<g fill="None" fill-opacity="0.0" stroke="#CABB9F" stroke-opacity="1.00" stroke-width="0.3"><path d="
M 1175.00 105.00 
C 1176.79 85.61 1145.88 60.45 1134.00 83.00
C 1151.04 81.26 1166.11 91.10 1175.00 105.00 Z"/>
</g>
<g fill="None" fill-opacity="0.0" stroke="#CBBA9E" stroke-opacity="1.00" stroke-width="0.3"><path d="
M 1232.00 83.00 
C 1220.16 60.40 1188.10 85.97 1192.00 104.00
C 1200.51 90.29 1215.62 81.17 1232.00 83.00 Z"/>
</g>
<g fill="None" fill-opacity="0.0" stroke="#C9B99D" stroke-opacity="1.00" stroke-width="0.3"><path d="
M 1179.00 131.00 
C 1166.18 89.81 1113.56 78.98 1077.68 90.68 C 1041.79 102.38 1020.16 151.13 979.00 133.00
C 986.38 155.53 1015.41 144.34 1028.00 133.00
C 1022.19 142.67 1017.55 153.75 1011.25 163.25 C 1004.94 172.75 998.00 180.49 988.08 186.08 C 978.16 191.67 961.12 191.60 954.31 180.69 C 947.49 169.79 949.89 155.12 963.33 150.33 C 976.77 145.55 983.43 174.16 965.00 168.00
C 978.21 186.99 995.57 155.87 978.70 146.31 C 961.82 136.74 944.57 147.03 943.00 165.00 C 941.43 182.97 956.04 196.18 973.00 196.00 C 989.96 195.82 1001.65 186.60 1011.00 173.00
C 1010.28 190.44 992.51 212.22 972.00 209.00
C 975.35 221.15 991.41 213.42 998.25 206.25 C 1005.09 199.08 1009.98 189.73 1013.23 180.23 C 1016.48 170.73 1020.59 159.62 1024.00 150.00
C 1028.08 152.77 1025.00 161.39 1028.00 166.00
C 1027.89 130.86 1053.96 99.49 1088.33 91.33 C 1122.70 83.17 1163.51 97.43 1179.00 131.00 Z"/>
</g>
<g fill="None" fill-opacity="0.0" stroke="#CDBEA3" stroke-opacity="1.00" stroke-width="0.3"><path d="
M 1388.00 131.00 
C 1363.18 147.50 1338.21 127.13 1319.70 109.30 C 1301.18 91.47 1267.88 81.74 1242.07 86.07 C 1216.26 90.40 1194.06 106.92 1187.00 132.00
C 1202.05 96.27 1244.52 82.95 1279.99 92.01 C 1315.47 101.07 1342.16 135.21 1337.00 172.00
C 1340.09 166.11 1340.62 159.02 1342.00 153.00
C 1347.69 166.37 1351.17 185.49 1359.70 197.30 C 1368.22 209.12 1386.97 224.47 1396.00 209.00
C 1377.51 211.36 1362.44 196.19 1358.00 180.00
C 1368.09 191.31 1382.91 199.63 1399.98 196.98 C 1417.04 194.32 1426.37 178.49 1422.99 162.01 C 1419.61 145.53 1401.11 136.69 1386.25 148.25 C 1371.38 159.81 1389.52 186.09 1402.00 168.00
C 1382.40 171.58 1392.00 145.68 1404.92 152.08 C 1417.85 158.47 1417.51 171.18 1410.25 181.25 C 1402.99 191.32 1387.32 190.46 1377.70 185.30 C 1368.07 180.15 1361.67 172.20 1355.77 163.23 C 1349.87 154.26 1346.06 143.91 1340.00 135.00
C 1352.57 146.54 1385.26 155.96 1388.00 131.00 Z"/>
</g>
<g fill="None" fill-opacity="0.0" stroke="#B6AF92" stroke-opacity="1.00" stroke-width="0.3"><path d="
M 1090.00 102.00 
C 1084.23 105.21 1081.41 115.78 1084.00 121.00
C 1087.50 105.34 1104.66 98.52 1120.00 101.00
C 1110.63 98.94 1099.20 100.22 1090.00 102.00 Z"/>
</g>
<g fill="None" fill-opacity="0.0" stroke="#869070" stroke-opacity="1.00" stroke-width="0.3"><path d="
M 1242.00 102.00 
C 1249.53 103.09 1260.82 116.86 1257.00 124.00
C 1252.99 111.71 1238.47 103.86 1226.00 108.00
C 1220.27 109.55 1215.67 113.31 1211.00 117.00
C 1210.96 117.01 1222.59 118.36 1226.69 121.31 C 1230.80 124.25 1236.96 129.86 1236.00 136.00
C 1227.74 126.44 1215.07 118.18 1203.00 126.00
C 1198.72 131.87 1194.83 137.05 1192.00 144.00
C 1192.13 143.87 1200.72 141.52 1205.00 141.00 C 1209.28 140.48 1214.40 145.27 1217.25 148.75 C 1220.10 152.23 1224.59 155.20 1227.00 159.00
C 1217.78 159.40 1215.49 147.89 1206.92 146.08 C 1198.36 144.26 1191.10 152.91 1187.00 159.00
C 1186.51 161.03 1186.41 162.98 1186.00 165.00
C 1185.83 167.32 1186.13 169.68 1186.00 172.00
C 1202.34 159.08 1215.23 182.96 1231.00 183.00
C 1215.21 193.91 1200.33 163.60 1186.00 180.00
C 1186.05 196.89 1194.87 211.42 1207.00 223.00
C 1192.83 234.33 1198.21 254.22 1195.00 270.00
C 1194.16 274.11 1191.56 277.71 1189.00 281.00
C 1196.77 277.41 1203.73 271.70 1211.00 267.00
C 1211.19 266.68 1211.84 266.27 1212.00 266.00
C 1212.56 265.03 1213.44 263.88 1214.00 263.00
C 1225.02 245.84 1237.17 230.86 1258.98 227.98 C 1280.78 225.09 1304.90 231.92 1323.77 241.23 C 1342.64 250.53 1357.17 259.48 1374.92 270.08 C 1392.67 280.67 1416.99 288.59 1437.33 284.33 C 1457.67 280.07 1474.21 262.85 1475.00 242.00
C 1475.16 237.93 1475.64 233.02 1475.00 229.00
C 1470.51 211.14 1456.83 197.86 1438.00 197.00 C 1419.17 196.14 1398.91 209.52 1405.08 230.92 C 1411.24 252.33 1447.37 241.21 1433.00 220.00
C 1463.49 220.94 1451.28 260.50 1428.00 261.00 C 1404.72 261.50 1387.25 248.63 1373.30 231.70 C 1359.36 214.76 1350.17 201.13 1333.00 188.00
C 1328.69 190.69 1326.30 195.31 1323.00 199.00
C 1337.91 206.51 1351.96 218.38 1362.00 232.00
C 1342.59 219.57 1321.85 208.22 1300.00 202.00
C 1350.05 179.19 1322.14 112.93 1278.00 102.00
C 1275.53 103.16 1281.19 107.08 1281.77 109.23 C 1282.35 111.39 1284.66 118.92 1282.00 121.00
C 1280.11 111.54 1271.78 105.46 1264.00 101.00
C 1256.13 100.26 1249.69 100.35 1242.00 102.00
M 1283.00 166.00 
C 1277.43 154.56 1262.18 160.82 1257.70 170.70 C 1253.21 180.57 1255.70 192.85 1265.00 200.00
C 1251.31 205.84 1244.38 193.67 1243.02 181.98 C 1241.67 170.28 1245.52 158.63 1253.75 150.75 C 1261.98 142.88 1274.00 138.68 1285.01 141.99 C 1296.01 145.30 1303.04 153.52 1304.00 165.00 C 1304.96 176.48 1296.92 188.37 1284.00 187.00 C 1271.08 185.63 1269.48 166.89 1283.00 166.00 Z"/>
</g>
<g fill="None" fill-opacity="0.0" stroke="#868F6F" stroke-opacity="1.00" stroke-width="0.3"><path d="
M 1090.00 102.00 
C 1068.07 106.13 1049.69 122.89 1041.92 143.92 C 1034.16 164.96 1042.73 195.92 1067.00 202.00
C 1045.98 208.51 1026.04 220.19 1007.00 232.00
C 1016.76 218.57 1030.50 206.68 1045.00 199.00
C 1040.81 189.66 1034.41 186.69 1028.25 194.25 C 1022.09 201.81 1017.01 204.73 1011.75 211.75 C 1006.50 218.77 1001.40 223.65 996.25 230.25 C 991.10 236.85 986.12 242.06 979.75 247.75 C 973.37 253.43 966.34 257.25 958.02 260.02 C 949.71 262.80 936.56 261.43 929.23 256.77 C 921.90 252.11 916.60 242.90 918.22 234.22 C 919.84 225.55 928.00 218.52 937.00 220.00
C 922.10 241.52 959.30 251.97 965.07 231.07 C 970.85 210.18 951.21 197.04 933.00 197.00 C 914.79 196.96 899.56 210.19 896.00 228.00
C 895.10 232.52 894.82 237.16 895.00 242.00
C 896.05 269.59 924.94 290.26 951.78 285.78 C 978.61 281.30 997.30 268.22 1020.77 254.77 C 1044.24 241.32 1065.75 229.59 1094.00 227.00 C 1122.25 224.41 1141.54 243.07 1156.00 265.00
C 1156.18 265.27 1156.80 265.68 1157.00 266.00
C 1164.09 271.52 1171.14 277.16 1179.00 281.00
C 1177.68 278.91 1175.71 277.40 1175.00 275.00
C 1169.11 257.33 1175.20 235.06 1160.00 221.00
C 1170.24 213.44 1176.57 201.93 1179.00 190.00
C 1181.59 177.25 1173.28 172.56 1162.93 176.93 C 1152.57 181.29 1147.56 188.98 1137.00 183.00
C 1152.54 183.68 1164.19 158.84 1180.00 172.00
C 1180.33 167.81 1179.77 163.92 1179.00 160.00
C 1179.00 160.00 1179.09 159.48 1179.00 159.00
C 1173.33 153.57 1165.96 143.08 1156.98 147.98 C 1147.99 152.88 1145.51 162.69 1135.00 159.00
C 1147.17 151.90 1158.97 130.96 1174.00 145.00
C 1171.70 139.47 1169.20 134.17 1166.00 129.00
C 1155.82 118.42 1138.87 123.02 1131.00 134.00
C 1132.54 123.23 1145.56 114.78 1156.00 119.00
C 1155.46 117.34 1153.44 116.67 1153.00 115.00
C 1148.39 112.00 1143.19 109.06 1138.00 107.00
C 1125.87 105.15 1116.81 111.56 1109.00 120.00
C 1108.95 111.33 1117.47 105.20 1125.00 103.00
C 1124.92 101.74 1122.94 102.44 1123.00 101.00
C 1122.03 100.90 1120.98 101.00 1120.00 101.00
C 1104.66 98.52 1087.50 105.34 1084.00 121.00
C 1081.41 115.78 1084.23 105.21 1090.00 102.00
M 1102.00 200.00 
C 1109.73 192.55 1113.60 180.19 1108.69 170.31 C 1103.79 160.42 1088.50 155.01 1083.00 166.00
C 1101.90 169.76 1088.86 191.33 1074.78 186.22 C 1060.70 181.11 1058.15 164.06 1065.77 152.77 C 1073.39 141.48 1090.01 137.97 1101.69 143.31 C 1113.38 148.64 1121.46 159.15 1122.99 172.01 C 1124.53 184.87 1119.78 207.20 1102.00 200.00 Z"/>
</g>
<g fill="None" fill-opacity="0.0" stroke="#BFB394" stroke-opacity="1.00" stroke-width="0.3"><path d="
M 1138.00 107.00 
C 1133.58 105.24 1128.09 101.53 1123.00 101.00
C 1122.94 102.44 1124.92 101.74 1125.00 103.00
C 1117.47 105.20 1108.95 111.33 1109.00 120.00
C 1116.81 111.56 1125.87 105.15 1138.00 107.00 Z"/>
</g>
<g fill="None" fill-opacity="0.0" stroke="#B3AA8B" stroke-opacity="1.00" stroke-width="0.3"><path d="
M 1278.00 102.00 
C 1273.37 100.85 1268.87 101.46 1264.00 101.00
C 1271.78 105.46 1280.11 111.54 1282.00 121.00
C 1284.66 118.92 1282.35 111.39 1281.77 109.23 C 1281.19 107.08 1275.53 103.16 1278.00 102.00 Z"/>
</g>
<g fill="None" fill-opacity="0.0" stroke="#BBAF90" stroke-opacity="1.00" stroke-width="0.3"><path d="
M 1226.00 108.00 
C 1238.47 103.86 1252.99 111.71 1257.00 124.00
C 1260.82 116.86 1249.53 103.09 1242.00 102.00
C 1236.23 103.24 1231.16 105.85 1226.00 108.00 Z"/>
</g>
<g fill="None" fill-opacity="0.0" stroke="#C0B293" stroke-opacity="1.00" stroke-width="0.3"><path d="
M 1166.00 129.00 
C 1162.93 124.04 1158.09 118.31 1153.00 115.00
C 1153.44 116.67 1155.46 117.34 1156.00 119.00
C 1145.56 114.78 1132.54 123.23 1131.00 134.00
C 1138.87 123.02 1155.82 118.42 1166.00 129.00 Z"/>
</g>
<g fill="None" fill-opacity="0.0" stroke="#BCB08F" stroke-opacity="1.00" stroke-width="0.3"><path d="
M 1203.00 126.00 
C 1215.07 118.18 1227.74 126.44 1236.00 136.00
C 1236.96 129.86 1230.80 124.25 1226.69 121.31 C 1222.59 118.36 1210.96 117.01 1211.00 117.00
C 1207.60 119.68 1205.35 122.77 1203.00 126.00 Z"/>
</g>
<g fill="None" fill-opacity="0.0" stroke="#B8AE8E" stroke-opacity="1.00" stroke-width="0.3"><path d="
M 1179.00 159.00 
C 1178.06 153.96 1175.83 149.40 1174.00 145.00
C 1158.97 130.96 1147.17 151.90 1135.00 159.00
C 1145.51 162.69 1147.99 152.88 1156.98 147.98 C 1165.96 143.08 1173.33 153.57 1179.00 159.00 Z"/>
</g>
<g fill="None" fill-opacity="0.0" stroke="#F4F5EE" stroke-opacity="1.00" stroke-width="0.3"><path d="
M 1102.00 200.00 
C 1119.78 207.20 1124.53 184.87 1122.99 172.01 C 1121.46 159.15 1113.38 148.64 1101.69 143.31 C 1090.01 137.97 1073.39 141.48 1065.77 152.77 C 1058.15 164.06 1060.70 181.11 1074.78 186.22 C 1088.86 191.33 1101.90 169.76 1083.00 166.00
C 1088.50 155.01 1103.79 160.42 1108.69 170.31 C 1113.60 180.19 1109.73 192.55 1102.00 200.00 Z"/>
</g>
<g fill="None" fill-opacity="0.0" stroke="#C1B595" stroke-opacity="1.00" stroke-width="0.3"><path d="
M 1192.00 144.00 
C 1190.18 148.48 1188.21 153.99 1187.00 159.00
C 1191.10 152.91 1198.36 144.26 1206.92 146.08 C 1215.49 147.89 1217.78 159.40 1227.00 159.00
C 1224.59 155.20 1220.10 152.23 1217.25 148.75 C 1214.40 145.27 1209.28 140.48 1205.00 141.00 C 1200.72 141.52 1192.13 143.87 1192.00 144.00 Z"/>
</g>
<g fill="None" fill-opacity="0.0" stroke="#F5F5EE" stroke-opacity="1.00" stroke-width="0.3"><path d="
M 1283.00 166.00 
C 1269.48 166.89 1271.08 185.63 1284.00 187.00 C 1296.92 188.37 1304.96 176.48 1304.00 165.00 C 1303.04 153.52 1296.01 145.30 1285.01 141.99 C 1274.00 138.68 1261.98 142.88 1253.75 150.75 C 1245.52 158.63 1241.67 170.28 1243.02 181.98 C 1244.38 193.67 1251.31 205.84 1265.00 200.00
C 1255.70 192.85 1253.21 180.57 1257.70 170.70 C 1262.18 160.82 1277.43 154.56 1283.00 166.00 Z"/>
</g>
<g fill="None" fill-opacity="0.0" stroke="#CCBDA2" stroke-opacity="1.00" stroke-width="0.3"><path d="
M 1430.00 185.00 
C 1444.64 177.87 1444.80 151.08 1428.00 146.00
C 1437.76 156.76 1438.12 173.22 1430.00 185.00 Z"/>
</g>
<g fill="None" fill-opacity="0.0" stroke="#CBBCA1" stroke-opacity="1.00" stroke-width="0.3"><path d="
M 936.00 148.00 
C 921.08 154.26 923.36 178.99 937.00 185.00
C 929.28 173.85 930.13 159.64 936.00 148.00 Z"/>
</g>
<g fill="None" fill-opacity="0.0" stroke="#BBB192" stroke-opacity="1.00" stroke-width="0.3"><path d="
M 1179.00 190.00 
C 1181.18 183.29 1184.10 166.28 1179.00 160.00
C 1179.77 163.92 1180.33 167.81 1180.00 172.00
C 1164.19 158.84 1152.54 183.68 1137.00 183.00
C 1147.56 188.98 1152.57 181.29 1162.93 176.93 C 1173.28 172.56 1181.59 177.25 1179.00 190.00 Z"/>
</g>
<g fill="None" fill-opacity="0.0" stroke="#B8AD8D" stroke-opacity="1.00" stroke-width="0.3"><path d="
M 1186.00 180.00 
C 1200.33 163.60 1215.21 193.91 1231.00 183.00
C 1215.23 182.96 1202.34 159.08 1186.00 172.00
C 1186.13 169.68 1185.83 167.32 1186.00 165.00
C 1184.99 169.94 1185.64 174.67 1186.00 180.00 Z"/>
</g>
<g fill="None" fill-opacity="0.0" stroke="#CBBA9D" stroke-opacity="1.00" stroke-width="0.3"><path d="
M 912.00 170.00 
C 896.15 159.20 878.15 178.37 882.00 195.00
C 858.24 182.96 826.28 178.01 804.00 196.00
C 833.29 184.16 869.34 189.11 892.00 212.00
C 894.58 199.71 906.56 194.08 915.00 186.00
C 909.44 178.39 899.88 186.24 894.00 189.00
C 892.91 178.66 902.42 169.68 912.00 170.00 Z"/>
</g>
<g fill="None" fill-opacity="0.0" stroke="#CBBA9C" stroke-opacity="1.00" stroke-width="0.3"><path d="
M 1488.00 195.00 
C 1492.46 178.38 1474.92 158.82 1459.00 170.00
C 1468.58 169.52 1477.50 178.73 1476.00 189.00
C 1470.12 185.26 1462.13 179.81 1455.00 185.00
C 1461.77 194.14 1476.02 198.67 1478.00 211.00
C 1489.59 202.76 1499.16 196.36 1512.98 191.98 C 1526.79 187.59 1546.71 191.62 1560.00 192.00
C 1538.18 177.75 1509.78 184.85 1488.00 195.00 Z"/>
</g>
<g fill="None" fill-opacity="0.0" stroke="#CBB99A" stroke-opacity="1.00" stroke-width="0.3"><path d="
M 895.00 242.00 
C 894.82 237.16 895.10 232.52 896.00 228.00
C 895.93 228.24 895.13 228.65 895.00 229.00
C 894.03 231.70 886.58 222.71 882.92 220.08 C 879.26 217.45 872.14 212.99 867.31 210.69 C 862.47 208.40 854.87 204.98 850.00 203.00
C 835.23 198.56 817.29 200.81 804.23 208.23 C 791.17 215.65 784.06 227.30 783.00 242.00 C 781.94 256.70 790.40 271.51 805.33 274.67 C 820.26 277.83 839.02 266.46 831.77 249.23 C 824.52 232.00 798.51 245.99 810.00 262.00
C 795.99 258.94 797.13 240.23 803.23 230.23 C 809.33 220.23 821.81 214.70 832.78 213.78 C 843.75 212.85 861.52 214.17 869.75 221.25 C 877.98 228.32 891.18 231.65 895.00 242.00 Z"/>
</g>
<g fill="None" fill-opacity="0.0" stroke="#CCB99A" stroke-opacity="1.00" stroke-width="0.3"><path d="
M 1475.00 229.00 
C 1475.64 233.02 1475.16 237.93 1475.00 242.00
C 1485.23 229.74 1496.09 221.36 1511.32 216.32 C 1526.55 211.29 1549.15 212.84 1561.25 223.75 C 1573.35 234.66 1578.13 257.15 1560.00 262.00
C 1570.86 247.44 1548.30 233.48 1539.93 247.93 C 1531.55 262.37 1544.69 274.52 1558.00 275.00 C 1571.31 275.48 1582.62 266.84 1586.22 254.22 C 1589.82 241.60 1586.93 227.05 1577.25 217.75 C 1567.57 208.46 1558.42 202.86 1545.00 201.00 C 1531.58 199.14 1515.30 203.03 1504.23 209.23 C 1493.16 215.43 1484.36 220.69 1475.00 229.00 Z"/>
</g>
<g fill="None" fill-opacity="0.0" stroke="#E3DCC8" stroke-opacity="1.00" stroke-width="0.3"><path d="
M 895.00 229.00 
C 890.06 228.35 887.11 219.94 882.23 217.77 C 877.35 215.60 871.79 211.89 866.69 209.31 C 861.60 206.72 855.48 204.64 850.00 203.00
C 854.87 204.98 862.47 208.40 867.31 210.69 C 872.14 212.99 879.26 217.45 882.92 220.08 C 886.58 222.71 894.03 231.70 895.00 229.00 Z"/>
</g>
<g fill="None" fill-opacity="0.0" stroke="#CAB999" stroke-opacity="1.00" stroke-width="0.3"><path d="
M 1184.00 206.00 
C 1179.61 210.82 1177.51 217.44 1172.00 222.00
C 1179.63 227.78 1180.01 238.45 1184.00 246.00
C 1185.97 237.13 1189.41 228.69 1194.00 221.00
C 1188.71 217.57 1186.05 211.57 1184.00 206.00 Z"/>
</g>
<g fill="None" fill-opacity="0.0" stroke="#CCBA9C" stroke-opacity="1.00" stroke-width="0.3"><path d="
M 786.00 211.00 
C 553.44 214.82 319.79 216.44 88.00 222.00
C 316.85 225.94 545.82 229.38 775.00 232.00
C 776.33 224.10 780.50 216.97 786.00 211.00 Z"/>
</g>
<g fill="None" fill-opacity="0.0" stroke="#CBB99B" stroke-opacity="1.00" stroke-width="0.3"><path d="
M 2309.00 221.00 
C 2067.94 217.88 1826.91 214.72 1586.00 211.00
C 1589.08 217.98 1594.26 224.37 1596.00 232.00
C 1833.74 228.91 2072.54 227.84 2309.00 221.00 Z"/>
</g>
<g fill="None" fill-opacity="0.0" stroke="#CBB99A" stroke-opacity="1.00" stroke-width="0.3"><path d="
M 1310.00 265.00 
C 1307.64 256.54 1299.88 251.04 1292.75 245.25 C 1285.62 239.46 1269.68 239.35 1260.78 240.78 C 1251.88 242.21 1241.61 248.67 1233.92 251.92 C 1226.23 255.17 1218.84 266.41 1212.00 266.00
C 1211.84 266.27 1211.19 266.68 1211.00 267.00
C 1206.88 273.91 1199.47 274.09 1193.77 279.77 C 1188.07 285.45 1180.18 284.84 1174.30 279.70 C 1168.43 274.56 1161.35 273.06 1157.00 266.00
C 1156.80 265.68 1156.18 265.27 1156.00 265.00
C 1144.24 259.24 1134.61 250.15 1121.07 243.93 C 1107.54 237.70 1088.73 236.58 1075.23 245.23 C 1061.73 253.88 1055.61 268.53 1059.01 283.99 C 1062.41 299.46 1075.75 309.77 1092.00 309.00 C 1108.25 308.23 1121.47 299.37 1121.00 281.00 C 1120.52 262.64 1087.84 266.71 1100.00 285.00
C 1088.58 298.22 1072.17 279.46 1078.08 266.08 C 1083.98 252.69 1098.56 248.36 1111.32 252.68 C 1124.08 257.00 1135.39 261.58 1145.77 269.23 C 1156.15 276.89 1165.82 281.84 1176.00 289.00
C 1166.11 293.81 1160.42 296.66 1149.00 298.00 C 1137.58 299.34 1132.18 289.03 1135.00 279.00
C 1126.10 286.15 1126.94 303.05 1138.78 305.22 C 1150.62 307.39 1160.25 306.37 1170.78 299.78 C 1181.30 293.18 1189.82 295.84 1200.00 301.00 C 1210.17 306.17 1222.39 309.16 1233.30 305.30 C 1244.22 301.44 1241.23 282.31 1232.00 279.00
C 1237.91 288.72 1228.35 301.78 1218.22 298.78 C 1208.10 295.77 1201.67 294.64 1194.00 288.00
C 1200.32 284.33 1206.43 280.34 1212.77 276.77 C 1219.12 273.20 1224.98 268.91 1231.25 265.25 C 1237.53 261.60 1243.09 257.71 1249.93 254.93 C 1256.77 252.14 1269.11 250.72 1276.32 252.68 C 1283.54 254.63 1289.98 260.25 1291.02 267.98 C 1292.07 275.70 1294.08 282.84 1283.69 287.69 C 1273.31 292.55 1269.75 284.61 1270.92 275.08 C 1272.10 265.55 1255.64 267.52 1251.75 272.75 C 1247.86 277.99 1246.14 289.45 1251.23 295.77 C 1256.32 302.09 1260.98 306.02 1268.93 308.07 C 1276.87 310.12 1286.11 308.80 1293.31 305.31 C 1300.50 301.81 1305.09 297.64 1308.08 290.08 C 1311.06 282.51 1311.49 273.32 1310.00 265.00 Z"/>
</g>
<g fill="None" fill-opacity="0.0" stroke="#E2DAC7" stroke-opacity="1.00" stroke-width="0.3"><path d="
M 1214.00 263.00 
C 1213.44 263.88 1212.56 265.03 1212.00 266.00
C 1218.84 266.41 1226.23 255.17 1233.92 251.92 C 1241.61 248.67 1251.88 242.21 1260.78 240.78 C 1269.68 239.35 1285.62 239.46 1292.75 245.25 C 1299.88 251.04 1307.64 256.54 1310.00 265.00
C 1309.24 255.91 1298.00 252.15 1296.00 244.00
C 1287.58 242.04 1274.11 237.14 1264.01 239.01 C 1253.90 240.87 1244.24 243.95 1236.23 249.23 C 1228.22 254.51 1220.57 259.13 1214.00 263.00 Z"/>
</g>
<g fill="None" fill-opacity="0.0" stroke="#CCBDA1" stroke-opacity="1.00" stroke-width="0.3"><path d="
M 1059.00 247.00 
C 1032.84 257.16 1012.79 274.09 987.68 287.68 C 962.57 301.27 925.53 304.87 903.00 283.00
C 938.86 324.65 996.07 292.58 1031.00 268.00
C 1028.52 273.81 1020.04 281.69 1019.00 288.00 C 1017.96 294.31 1014.59 310.50 1024.98 310.97 C 1035.36 311.45 1027.98 294.19 1029.01 288.01 C 1030.04 281.83 1034.35 272.04 1039.00 267.00
C 1038.39 277.84 1038.87 294.41 1046.70 303.30 C 1054.53 312.19 1062.43 321.83 1074.00 320.00
C 1059.76 314.93 1050.21 304.99 1046.00 290.00 C 1041.78 275.01 1050.30 258.82 1059.00 247.00 Z"/>
</g>
<g fill="None" fill-opacity="0.0" stroke="#CCBDA1" stroke-opacity="1.00" stroke-width="0.3"><path d="
M 1462.00 287.00 
C 1438.76 305.93 1403.89 299.38 1380.08 286.92 C 1356.27 274.46 1337.70 258.72 1313.00 249.00
C 1321.91 261.19 1327.43 279.35 1321.92 293.92 C 1316.42 308.50 1305.90 316.12 1292.00 321.00
C 1304.19 321.96 1314.68 314.00 1322.75 303.75 C 1330.81 293.49 1330.70 276.71 1329.00 265.00
C 1334.64 270.52 1339.16 280.87 1340.00 288.00 C 1340.84 295.13 1332.03 310.54 1342.99 311.99 C 1353.95 313.44 1352.93 295.04 1350.32 288.68 C 1347.72 282.32 1343.52 273.25 1338.00 268.00
C 1372.46 291.05 1425.45 322.49 1462.00 287.00 Z"/>
</g>
<g fill="None" fill-opacity="0.0" stroke="#ABA88C" stroke-opacity="1.00" stroke-width="0.3"><path d="
M 1211.00 267.00 
C 1203.73 271.70 1196.77 277.41 1189.00 281.00
C 1191.56 277.71 1194.16 274.11 1195.00 270.00
C 1191.59 281.07 1181.93 286.67 1175.00 275.00
C 1175.71 277.40 1177.68 278.91 1179.00 281.00
C 1171.14 277.16 1164.09 271.52 1157.00 266.00
C 1161.35 273.06 1168.43 274.56 1174.30 279.70 C 1180.18 284.84 1188.07 285.45 1193.77 279.77 C 1199.47 274.09 1206.88 273.91 1211.00 267.00 Z"/>
</g>
<g fill="None" fill-opacity="0.0" stroke="#CDBDA1" stroke-opacity="1.00" stroke-width="0.3"><path d="
M 1175.00 307.00 
C 1162.43 320.03 1140.45 328.37 1125.00 316.00
C 1129.07 346.85 1174.39 332.11 1175.00 307.00 Z"/>
</g>
<g fill="None" fill-opacity="0.0" stroke="#CBBA9D" stroke-opacity="1.00" stroke-width="0.3"><path d="
M 1241.00 319.00 
C 1225.22 327.70 1206.53 320.18 1194.00 309.00
C 1195.08 331.16 1236.08 346.05 1241.00 319.00 Z"/>
</g>
<g fill="None" fill-opacity="0.0" stroke="#CBB99A" stroke-opacity="1.00" stroke-width="0.3"><path d="
M 1183.00 312.00 
C 1180.74 320.37 1178.29 325.27 1176.00 334.00 C 1173.70 342.72 1175.03 349.51 1178.23 358.77 C 1181.43 368.03 1187.87 364.33 1190.25 356.25 C 1192.62 348.16 1195.11 339.32 1191.32 331.68 C 1187.53 324.04 1189.67 316.49 1183.00 312.00 Z"/>
</g>
<g fill="#FAFAF5" fill-opacity="1.00" stroke="None">
<path d="
M 0.00 422.00 
L 2369.00 422.00
L 2369.00 0.00
L 0.00 0.00
L 0.00 422.00
M 1184.00 53.00 
C 1196.87 65.73 1190.56 88.36 1182.00 100.00
C 1177.63 86.12 1167.39 62.87 1184.00 53.00
M 1175.00 105.00 
C 1166.11 91.10 1151.04 81.26 1134.00 83.00
C 1145.88 60.45 1176.79 85.61 1175.00 105.00
M 1232.00 83.00 
C 1215.62 81.17 1200.51 90.29 1192.00 104.00
C 1188.10 85.97 1220.16 60.40 1232.00 83.00
M 1179.00 131.00 
C 1163.51 97.43 1122.70 83.17 1088.33 91.33 C 1053.96 99.49 1027.89 130.86 1028.00 166.00
C 1025.00 161.39 1028.08 152.77 1024.00 150.00
C 1020.59 159.62 1016.48 170.73 1013.23 180.23 C 1009.98 189.73 1005.09 199.08 998.25 206.25 C 991.41 213.42 975.35 221.15 972.00 209.00
C 992.51 212.22 1010.28 190.44 1011.00 173.00
C 1001.65 186.60 989.96 195.82 973.00 196.00 C 956.04 196.18 941.43 182.97 943.00 165.00 C 944.57 147.03 961.82 136.74 978.70 146.31 C 995.57 155.87 978.21 186.99 965.00 168.00
C 983.43 174.16 976.77 145.55 963.33 150.33 C 949.89 155.12 947.49 169.79 954.31 180.69 C 961.12 191.60 978.16 191.67 988.08 186.08 C 998.00 180.49 1004.94 172.75 1011.25 163.25 C 1017.55 153.75 1022.19 142.67 1028.00 133.00
C 1015.41 144.34 986.38 155.53 979.00 133.00
C 1020.16 151.13 1041.79 102.38 1077.68 90.68 C 1113.56 78.98 1166.18 89.81 1179.00 131.00
M 1388.00 131.00 
C 1385.26 155.96 1352.57 146.54 1340.00 135.00
C 1346.06 143.91 1349.87 154.26 1355.77 163.23 C 1361.67 172.20 1368.07 180.15 1377.70 185.30 C 1387.32 190.46 1402.99 191.32 1410.25 181.25 C 1417.51 171.18 1417.85 158.47 1404.92 152.08 C 1392.00 145.68 1382.40 171.58 1402.00 168.00
C 1389.52 186.09 1371.38 159.81 1386.25 148.25 C 1401.11 136.69 1419.61 145.53 1422.99 162.01 C 1426.37 178.49 1417.04 194.32 1399.98 196.98 C 1382.91 199.63 1368.09 191.31 1358.00 180.00
C 1362.44 196.19 1377.51 211.36 1396.00 209.00
C 1386.97 224.47 1368.22 209.12 1359.70 197.30 C 1351.17 185.49 1347.69 166.37 1342.00 153.00
C 1340.62 159.02 1340.09 166.11 1337.00 172.00
C 1342.16 135.21 1315.47 101.07 1279.99 92.01 C 1244.52 82.95 1202.05 96.27 1187.00 132.00
C 1194.06 106.92 1216.26 90.40 1242.07 86.07 C 1267.88 81.74 1301.18 91.47 1319.70 109.30 C 1338.21 127.13 1363.18 147.50 1388.00 131.00
M 1120.00 101.00 
C 1120.98 101.00 1122.03 100.90 1123.00 101.00
C 1128.09 101.53 1133.58 105.24 1138.00 107.00
C 1143.19 109.06 1148.39 112.00 1153.00 115.00
C 1158.09 118.31 1162.93 124.04 1166.00 129.00
C 1169.20 134.17 1171.70 139.47 1174.00 145.00
C 1175.83 149.40 1178.06 153.96 1179.00 159.00
C 1179.09 159.48 1179.00 160.00 1179.00 160.00
C 1184.10 166.28 1181.18 183.29 1179.00 190.00
C 1176.57 201.93 1170.24 213.44 1160.00 221.00
C 1175.20 235.06 1169.11 257.33 1175.00 275.00
C 1181.93 286.67 1191.59 281.07 1195.00 270.00
C 1198.21 254.22 1192.83 234.33 1207.00 223.00
C 1194.87 211.42 1186.05 196.89 1186.00 180.00
C 1185.64 174.67 1184.99 169.94 1186.00 165.00
C 1186.41 162.98 1186.51 161.03 1187.00 159.00
C 1188.21 153.99 1190.18 148.48 1192.00 144.00
C 1194.83 137.05 1198.72 131.87 1203.00 126.00
C 1205.35 122.77 1207.60 119.68 1211.00 117.00
C 1215.67 113.31 1220.27 109.55 1226.00 108.00
C 1231.16 105.85 1236.23 103.24 1242.00 102.00
C 1249.69 100.35 1256.13 100.26 1264.00 101.00
C 1268.87 101.46 1273.37 100.85 1278.00 102.00
C 1322.14 112.93 1350.05 179.19 1300.00 202.00
C 1321.85 208.22 1342.59 219.57 1362.00 232.00
C 1351.96 218.38 1337.91 206.51 1323.00 199.00
C 1326.30 195.31 1328.69 190.69 1333.00 188.00
C 1350.17 201.13 1359.36 214.76 1373.30 231.70 C 1387.25 248.63 1404.72 261.50 1428.00 261.00 C 1451.28 260.50 1463.49 220.94 1433.00 220.00
C 1447.37 241.21 1411.24 252.33 1405.08 230.92 C 1398.91 209.52 1419.17 196.14 1438.00 197.00 C 1456.83 197.86 1470.51 211.14 1475.00 229.00
C 1484.36 220.69 1493.16 215.43 1504.23 209.23 C 1515.30 203.03 1531.58 199.14 1545.00 201.00 C 1558.42 202.86 1567.57 208.46 1577.25 217.75 C 1586.93 227.05 1589.82 241.60 1586.22 254.22 C 1582.62 266.84 1571.31 275.48 1558.00 275.00 C 1544.69 274.52 1531.55 262.37 1539.93 247.93 C 1548.30 233.48 1570.86 247.44 1560.00 262.00
C 1578.13 257.15 1573.35 234.66 1561.25 223.75 C 1549.15 212.84 1526.55 211.29 1511.32 216.32 C 1496.09 221.36 1485.23 229.74 1475.00 242.00
C 1474.21 262.85 1457.67 280.07 1437.33 284.33 C 1416.99 288.59 1392.67 280.67 1374.92 270.08 C 1357.17 259.48 1342.64 250.53 1323.77 241.23 C 1304.90 231.92 1280.78 225.09 1258.98 227.98 C 1237.17 230.86 1225.02 245.84 1214.00 263.00
C 1220.57 259.13 1228.22 254.51 1236.23 249.23 C 1244.24 243.95 1253.90 240.87 1264.01 239.01 C 1274.11 237.14 1287.58 242.04 1296.00 244.00
C 1298.00 252.15 1309.24 255.91 1310.00 265.00
C 1311.49 273.32 1311.06 282.51 1308.08 290.08 C 1305.09 297.64 1300.50 301.81 1293.31 305.31 C 1286.11 308.80 1276.87 310.12 1268.93 308.07 C 1260.98 306.02 1256.32 302.09 1251.23 295.77 C 1246.14 289.45 1247.86 277.99 1251.75 272.75 C 1255.64 267.52 1272.10 265.55 1270.92 275.08 C 1269.75 284.61 1273.31 292.55 1283.69 287.69 C 1294.08 282.84 1292.07 275.70 1291.02 267.98 C 1289.98 260.25 1283.54 254.63 1276.32 252.68 C 1269.11 250.72 1256.77 252.14 1249.93 254.93 C 1243.09 257.71 1237.53 261.60 1231.25 265.25 C 1224.98 268.91 1219.12 273.20 1212.77 276.77 C 1206.43 280.34 1200.32 284.33 1194.00 288.00
C 1201.67 294.64 1208.10 295.77 1218.22 298.78 C 1228.35 301.78 1237.91 288.72 1232.00 279.00
C 1241.23 282.31 1244.22 301.44 1233.30 305.30 C 1222.39 309.16 1210.17 306.17 1200.00 301.00 C 1189.82 295.84 1181.30 293.18 1170.78 299.78 C 1160.25 306.37 1150.62 307.39 1138.78 305.22 C 1126.94 303.05 1126.10 286.15 1135.00 279.00
C 1132.18 289.03 1137.58 299.34 1149.00 298.00 C 1160.42 296.66 1166.11 293.81 1176.00 289.00
C 1165.82 281.84 1156.15 276.89 1145.77 269.23 C 1135.39 261.58 1124.08 257.00 1111.32 252.68 C 1098.56 248.36 1083.98 252.69 1078.08 266.08 C 1072.17 279.46 1088.58 298.22 1100.00 285.00
C 1087.84 266.71 1120.52 262.64 1121.00 281.00 C 1121.47 299.37 1108.25 308.23 1092.00 309.00 C 1075.75 309.77 1062.41 299.46 1059.01 283.99 C 1055.61 268.53 1061.73 253.88 1075.23 245.23 C 1088.73 236.58 1107.54 237.70 1121.07 243.93 C 1134.61 250.15 1144.24 259.24 1156.00 265.00
C 1141.54 243.07 1122.25 224.41 1094.00 227.00 C 1065.75 229.59 1044.24 241.32 1020.77 254.77 C 997.30 268.22 978.61 281.30 951.78 285.78 C 924.94 290.26 896.05 269.59 895.00 242.00
C 891.18 231.65 877.98 228.32 869.75 221.25 C 861.52 214.17 843.75 212.85 832.78 213.78 C 821.81 214.70 809.33 220.23 803.23 230.23 C 797.13 240.23 795.99 258.94 810.00 262.00
C 798.51 245.99 824.52 232.00 831.77 249.23 C 839.02 266.46 820.26 277.83 805.33 274.67 C 790.40 271.51 781.94 256.70 783.00 242.00 C 784.06 227.30 791.17 215.65 804.23 208.23 C 817.29 200.81 835.23 198.56 850.00 203.00
C 855.48 204.64 861.60 206.72 866.69 209.31 C 871.79 211.89 877.35 215.60 882.23 217.77 C 887.11 219.94 890.06 228.35 895.00 229.00
C 895.13 228.65 895.93 228.24 896.00 228.00
C 899.56 210.19 914.79 196.96 933.00 197.00 C 951.21 197.04 970.85 210.18 965.07 231.07 C 959.30 251.97 922.10 241.52 937.00 220.00
C 928.00 218.52 919.84 225.55 918.22 234.22 C 916.60 242.90 921.90 252.11 929.23 256.77 C 936.56 261.43 949.71 262.80 958.02 260.02 C 966.34 257.25 973.37 253.43 979.75 247.75 C 986.12 242.06 991.10 236.85 996.25 230.25 C 1001.40 223.65 1006.50 218.77 1011.75 211.75 C 1017.01 204.73 1022.09 201.81 1028.25 194.25 C 1034.41 186.69 1040.81 189.66 1045.00 199.00
C 1030.50 206.68 1016.76 218.57 1007.00 232.00
C 1026.04 220.19 1045.98 208.51 1067.00 202.00
C 1042.73 195.92 1034.16 164.96 1041.92 143.92 C 1049.69 122.89 1068.07 106.13 1090.00 102.00
C 1099.20 100.22 1110.63 98.94 1120.00 101.00
M 1430.00 185.00 
C 1438.12 173.22 1437.76 156.76 1428.00 146.00
C 1444.80 151.08 1444.64 177.87 1430.00 185.00
M 936.00 148.00 
C 930.13 159.64 929.28 173.85 937.00 185.00
C 923.36 178.99 921.08 154.26 936.00 148.00
M 912.00 170.00 
C 902.42 169.68 892.91 178.66 894.00 189.00
C 899.88 186.24 909.44 178.39 915.00 186.00
C 906.56 194.08 894.58 199.71 892.00 212.00
C 869.34 189.11 833.29 184.16 804.00 196.00
C 826.28 178.01 858.24 182.96 882.00 195.00
C 878.15 178.37 896.15 159.20 912.00 170.00
M 1488.00 195.00 
C 1509.78 184.85 1538.18 177.75 1560.00 192.00
C 1546.71 191.62 1526.79 187.59 1512.98 191.98 C 1499.16 196.36 1489.59 202.76 1478.00 211.00
C 1476.02 198.67 1461.77 194.14 1455.00 185.00
C 1462.13 179.81 1470.12 185.26 1476.00 189.00
C 1477.50 178.73 1468.58 169.52 1459.00 170.00
C 1474.92 158.82 1492.46 178.38 1488.00 195.00
M 1184.00 206.00 
C 1186.05 211.57 1188.71 217.57 1194.00 221.00
C 1189.41 228.69 1185.97 237.13 1184.00 246.00
C 1180.01 238.45 1179.63 227.78 1172.00 222.00
C 1177.51 217.44 1179.61 210.82 1184.00 206.00
M 786.00 211.00 
C 780.50 216.97 776.33 224.10 775.00 232.00
C 545.82 229.38 316.85 225.94 88.00 222.00
C 319.79 216.44 553.44 214.82 786.00 211.00
M 2309.00 221.00 
C 2072.54 227.84 1833.74 228.91 1596.00 232.00
C 1594.26 224.37 1589.08 217.98 1586.00 211.00
C 1826.91 214.72 2067.94 217.88 2309.00 221.00
M 1059.00 247.00 
C 1050.30 258.82 1041.78 275.01 1046.00 290.00 C 1050.21 304.99 1059.76 314.93 1074.00 320.00
C 1062.43 321.83 1054.53 312.19 1046.70 303.30 C 1038.87 294.41 1038.39 277.84 1039.00 267.00
C 1034.35 272.04 1030.04 281.83 1029.01 288.01 C 1027.98 294.19 1035.36 311.45 1024.98 310.97 C 1014.59 310.50 1017.96 294.31 1019.00 288.00 C 1020.04 281.69 1028.52 273.81 1031.00 268.00
C 996.07 292.58 938.86 324.65 903.00 283.00
C 925.53 304.87 962.57 301.27 987.68 287.68 C 1012.79 274.09 1032.84 257.16 1059.00 247.00
M 1462.00 287.00 
C 1425.45 322.49 1372.46 291.05 1338.00 268.00
C 1343.52 273.25 1347.72 282.32 1350.32 288.68 C 1352.93 295.04 1353.95 313.44 1342.99 311.99 C 1332.03 310.54 1340.84 295.13 1340.00 288.00 C 1339.16 280.87 1334.64 270.52 1329.00 265.00
C 1330.70 276.71 1330.81 293.49 1322.75 303.75 C 1314.68 314.00 1304.19 321.96 1292.00 321.00
C 1305.90 316.12 1316.42 308.50 1321.92 293.92 C 1327.43 279.35 1321.91 261.19 1313.00 249.00
C 1337.70 258.72 1356.27 274.46 1380.08 286.92 C 1403.89 299.38 1438.76 305.93 1462.00 287.00
M 1175.00 307.00 
C 1174.39 332.11 1129.07 346.85 1125.00 316.00
C 1140.45 328.37 1162.43 320.03 1175.00 307.00
M 1241.00 319.00 
C 1236.08 346.05 1195.08 331.16 1194.00 309.00
C 1206.53 320.18 1225.22 327.70 1241.00 319.00
M 1183.00 312.00 
C 1189.67 316.49 1187.53 324.04 1191.32 331.68 C 1195.11 339.32 1192.62 348.16 1190.25 356.25 C 1187.87 364.33 1181.43 368.03 1178.23 358.77 C 1175.03 349.51 1173.70 342.72 1176.00 334.00 C 1178.29 325.27 1180.74 320.37 1183.00 312.00 Z"/>
</g>
<g fill="#CCBDA0" fill-opacity="1.00" stroke="None">
<path d="
M 1184.00 53.00 
C 1167.39 62.87 1177.63 86.12 1182.00 100.00
C 1190.56 88.36 1196.87 65.73 1184.00 53.00 Z"/>
</g>
<g fill="#CABB9F" fill-opacity="1.00" stroke="None">
<path d="
M 1175.00 105.00 
C 1176.79 85.61 1145.88 60.45 1134.00 83.00
C 1151.04 81.26 1166.11 91.10 1175.00 105.00 Z"/>
</g>
<g fill="#CBBA9E" fill-opacity="1.00" stroke="None">
<path d="
M 1232.00 83.00 
C 1220.16 60.40 1188.10 85.97 1192.00 104.00
C 1200.51 90.29 1215.62 81.17 1232.00 83.00 Z"/>
</g>
<g fill="#C9B99D" fill-opacity="1.00" stroke="None">
<path d="
M 1179.00 131.00 
C 1166.18 89.81 1113.56 78.98 1077.68 90.68 C 1041.79 102.38 1020.16 151.13 979.00 133.00
C 986.38 155.53 1015.41 144.34 1028.00 133.00
C 1022.19 142.67 1017.55 153.75 1011.25 163.25 C 1004.94 172.75 998.00 180.49 988.08 186.08 C 978.16 191.67 961.12 191.60 954.31 180.69 C 947.49 169.79 949.89 155.12 963.33 150.33 C 976.77 145.55 983.43 174.16 965.00 168.00
C 978.21 186.99 995.57 155.87 978.70 146.31 C 961.82 136.74 944.57 147.03 943.00 165.00 C 941.43 182.97 956.04 196.18 973.00 196.00 C 989.96 195.82 1001.65 186.60 1011.00 173.00
C 1010.28 190.44 992.51 212.22 972.00 209.00
C 975.35 221.15 991.41 213.42 998.25 206.25 C 1005.09 199.08 1009.98 189.73 1013.23 180.23 C 1016.48 170.73 1020.59 159.62 1024.00 150.00
C 1028.08 152.77 1025.00 161.39 1028.00 166.00
C 1027.89 130.86 1053.96 99.49 1088.33 91.33 C 1122.70 83.17 1163.51 97.43 1179.00 131.00 Z"/>
</g>
<g fill="#CDBEA3" fill-opacity="1.00" stroke="None">
<path d="
M 1388.00 131.00 
C 1363.18 147.50 1338.21 127.13 1319.70 109.30 C 1301.18 91.47 1267.88 81.74 1242.07 86.07 C 1216.26 90.40 1194.06 106.92 1187.00 132.00
C 1202.05 96.27 1244.52 82.95 1279.99 92.01 C 1315.47 101.07 1342.16 135.21 1337.00 172.00
C 1340.09 166.11 1340.62 159.02 1342.00 153.00
C 1347.69 166.37 1351.17 185.49 1359.70 197.30 C 1368.22 209.12 1386.97 224.47 1396.00 209.00
C 1377.51 211.36 1362.44 196.19 1358.00 180.00
C 1368.09 191.31 1382.91 199.63 1399.98 196.98 C 1417.04 194.32 1426.37 178.49 1422.99 162.01 C 1419.61 145.53 1401.11 136.69 1386.25 148.25 C 1371.38 159.81 1389.52 186.09 1402.00 168.00
C 1382.40 171.58 1392.00 145.68 1404.92 152.08 C 1417.85 158.47 1417.51 171.18 1410.25 181.25 C 1402.99 191.32 1387.32 190.46 1377.70 185.30 C 1368.07 180.15 1361.67 172.20 1355.77 163.23 C 1349.87 154.26 1346.06 143.91 1340.00 135.00
C 1352.57 146.54 1385.26 155.96 1388.00 131.00 Z"/>
</g>
<g fill="#B6AF92" fill-opacity="1.00" stroke="None">
<path d="
M 1090.00 102.00 
C 1084.23 105.21 1081.41 115.78 1084.00 121.00
C 1087.50 105.34 1104.66 98.52 1120.00 101.00
C 1110.63 98.94 1099.20 100.22 1090.00 102.00 Z"/>
</g>
<g fill="#869070" fill-opacity="1.00" stroke="None">
<path d="
M 1242.00 102.00 
C 1249.53 103.09 1260.82 116.86 1257.00 124.00
C 1252.99 111.71 1238.47 103.86 1226.00 108.00
C 1220.27 109.55 1215.67 113.31 1211.00 117.00
C 1210.96 117.01 1222.59 118.36 1226.69 121.31 C 1230.80 124.25 1236.96 129.86 1236.00 136.00
C 1227.74 126.44 1215.07 118.18 1203.00 126.00
C 1198.72 131.87 1194.83 137.05 1192.00 144.00
C 1192.13 143.87 1200.72 141.52 1205.00 141.00 C 1209.28 140.48 1214.40 145.27 1217.25 148.75 C 1220.10 152.23 1224.59 155.20 1227.00 159.00
C 1217.78 159.40 1215.49 147.89 1206.92 146.08 C 1198.36 144.26 1191.10 152.91 1187.00 159.00
C 1186.51 161.03 1186.41 162.98 1186.00 165.00
C 1185.83 167.32 1186.13 169.68 1186.00 172.00
C 1202.34 159.08 1215.23 182.96 1231.00 183.00
C 1215.21 193.91 1200.33 163.60 1186.00 180.00
C 1186.05 196.89 1194.87 211.42 1207.00 223.00
C 1192.83 234.33 1198.21 254.22 1195.00 270.00
C 1194.16 274.11 1191.56 277.71 1189.00 281.00
C 1196.77 277.41 1203.73 271.70 1211.00 267.00
C 1211.19 266.68 1211.84 266.27 1212.00 266.00
C 1212.56 265.03 1213.44 263.88 1214.00 263.00
C 1225.02 245.84 1237.17 230.86 1258.98 227.98 C 1280.78 225.09 1304.90 231.92 1323.77 241.23 C 1342.64 250.53 1357.17 259.48 1374.92 270.08 C 1392.67 280.67 1416.99 288.59 1437.33 284.33 C 1457.67 280.07 1474.21 262.85 1475.00 242.00
C 1475.16 237.93 1475.64 233.02 1475.00 229.00
C 1470.51 211.14 1456.83 197.86 1438.00 197.00 C 1419.17 196.14 1398.91 209.52 1405.08 230.92 C 1411.24 252.33 1447.37 241.21 1433.00 220.00
C 1463.49 220.94 1451.28 260.50 1428.00 261.00 C 1404.72 261.50 1387.25 248.63 1373.30 231.70 C 1359.36 214.76 1350.17 201.13 1333.00 188.00
C 1328.69 190.69 1326.30 195.31 1323.00 199.00
C 1337.91 206.51 1351.96 218.38 1362.00 232.00
C 1342.59 219.57 1321.85 208.22 1300.00 202.00
C 1350.05 179.19 1322.14 112.93 1278.00 102.00
C 1275.53 103.16 1281.19 107.08 1281.77 109.23 C 1282.35 111.39 1284.66 118.92 1282.00 121.00
C 1280.11 111.54 1271.78 105.46 1264.00 101.00
C 1256.13 100.26 1249.69 100.35 1242.00 102.00
M 1283.00 166.00 
C 1277.43 154.56 1262.18 160.82 1257.70 170.70 C 1253.21 180.57 1255.70 192.85 1265.00 200.00
C 1251.31 205.84 1244.38 193.67 1243.02 181.98 C 1241.67 170.28 1245.52 158.63 1253.75 150.75 C 1261.98 142.88 1274.00 138.68 1285.01 141.99 C 1296.01 145.30 1303.04 153.52 1304.00 165.00 C 1304.96 176.48 1296.92 188.37 1284.00 187.00 C 1271.08 185.63 1269.48 166.89 1283.00 166.00 Z"/>
</g>
<g fill="#868F6F" fill-opacity="1.00" stroke="None">
<path d="
M 1090.00 102.00 
C 1068.07 106.13 1049.69 122.89 1041.92 143.92 C 1034.16 164.96 1042.73 195.92 1067.00 202.00
C 1045.98 208.51 1026.04 220.19 1007.00 232.00
C 1016.76 218.57 1030.50 206.68 1045.00 199.00
C 1040.81 189.66 1034.41 186.69 1028.25 194.25 C 1022.09 201.81 1017.01 204.73 1011.75 211.75 C 1006.50 218.77 1001.40 223.65 996.25 230.25 C 991.10 236.85 986.12 242.06 979.75 247.75 C 973.37 253.43 966.34 257.25 958.02 260.02 C 949.71 262.80 936.56 261.43 929.23 256.77 C 921.90 252.11 916.60 242.90 918.22 234.22 C 919.84 225.55 928.00 218.52 937.00 220.00
C 922.10 241.52 959.30 251.97 965.07 231.07 C 970.85 210.18 951.21 197.04 933.00 197.00 C 914.79 196.96 899.56 210.19 896.00 228.00
C 895.10 232.52 894.82 237.16 895.00 242.00
C 896.05 269.59 924.94 290.26 951.78 285.78 C 978.61 281.30 997.30 268.22 1020.77 254.77 C 1044.24 241.32 1065.75 229.59 1094.00 227.00 C 1122.25 224.41 1141.54 243.07 1156.00 265.00
C 1156.18 265.27 1156.80 265.68 1157.00 266.00
C 1164.09 271.52 1171.14 277.16 1179.00 281.00
C 1177.68 278.91 1175.71 277.40 1175.00 275.00
C 1169.11 257.33 1175.20 235.06 1160.00 221.00
C 1170.24 213.44 1176.57 201.93 1179.00 190.00
C 1181.59 177.25 1173.28 172.56 1162.93 176.93 C 1152.57 181.29 1147.56 188.98 1137.00 183.00
C 1152.54 183.68 1164.19 158.84 1180.00 172.00
C 1180.33 167.81 1179.77 163.92 1179.00 160.00
C 1179.00 160.00 1179.09 159.48 1179.00 159.00
C 1173.33 153.57 1165.96 143.08 1156.98 147.98 C 1147.99 152.88 1145.51 162.69 1135.00 159.00
C 1147.17 151.90 1158.97 130.96 1174.00 145.00
C 1171.70 139.47 1169.20 134.17 1166.00 129.00
C 1155.82 118.42 1138.87 123.02 1131.00 134.00
C 1132.54 123.23 1145.56 114.78 1156.00 119.00
C 1155.46 117.34 1153.44 116.67 1153.00 115.00
C 1148.39 112.00 1143.19 109.06 1138.00 107.00
C 1125.87 105.15 1116.81 111.56 1109.00 120.00
C 1108.95 111.33 1117.47 105.20 1125.00 103.00
C 1124.92 101.74 1122.94 102.44 1123.00 101.00
C 1122.03 100.90 1120.98 101.00 1120.00 101.00
C 1104.66 98.52 1087.50 105.34 1084.00 121.00
C 1081.41 115.78 1084.23 105.21 1090.00 102.00
M 1102.00 200.00 
C 1109.73 192.55 1113.60 180.19 1108.69 170.31 C 1103.79 160.42 1088.50 155.01 1083.00 166.00
C 1101.90 169.76 1088.86 191.33 1074.78 186.22 C 1060.70 181.11 1058.15 164.06 1065.77 152.77 C 1073.39 141.48 1090.01 137.97 1101.69 143.31 C 1113.38 148.64 1121.46 159.15 1122.99 172.01 C 1124.53 184.87 1119.78 207.20 1102.00 200.00 Z"/>
</g>
<g fill="#BFB394" fill-opacity="1.00" stroke="None">
<path d="
M 1138.00 107.00 
C 1133.58 105.24 1128.09 101.53 1123.00 101.00
C 1122.94 102.44 1124.92 101.74 1125.00 103.00
C 1117.47 105.20 1108.95 111.33 1109.00 120.00
C 1116.81 111.56 1125.87 105.15 1138.00 107.00 Z"/>
</g>
<g fill="#B3AA8B" fill-opacity="1.00" stroke="None">
<path d="
M 1278.00 102.00 
C 1273.37 100.85 1268.87 101.46 1264.00 101.00
C 1271.78 105.46 1280.11 111.54 1282.00 121.00
C 1284.66 118.92 1282.35 111.39 1281.77 109.23 C 1281.19 107.08 1275.53 103.16 1278.00 102.00 Z"/>
</g>
<g fill="#BBAF90" fill-opacity="1.00" stroke="None">
<path d="
M 1226.00 108.00 
C 1238.47 103.86 1252.99 111.71 1257.00 124.00
C 1260.82 116.86 1249.53 103.09 1242.00 102.00
C 1236.23 103.24 1231.16 105.85 1226.00 108.00 Z"/>
</g>
<g fill="#C0B293" fill-opacity="1.00" stroke="None">
<path d="
M 1166.00 129.00 
C 1162.93 124.04 1158.09 118.31 1153.00 115.00
C 1153.44 116.67 1155.46 117.34 1156.00 119.00
C 1145.56 114.78 1132.54 123.23 1131.00 134.00
C 1138.87 123.02 1155.82 118.42 1166.00 129.00 Z"/>
</g>
<g fill="#BCB08F" fill-opacity="1.00" stroke="None">
<path d="
M 1203.00 126.00 
C 1215.07 118.18 1227.74 126.44 1236.00 136.00
C 1236.96 129.86 1230.80 124.25 1226.69 121.31 C 1222.59 118.36 1210.96 117.01 1211.00 117.00
C 1207.60 119.68 1205.35 122.77 1203.00 126.00 Z"/>
</g>
<g fill="#B8AE8E" fill-opacity="1.00" stroke="None">
<path d="
M 1179.00 159.00 
C 1178.06 153.96 1175.83 149.40 1174.00 145.00
C 1158.97 130.96 1147.17 151.90 1135.00 159.00
C 1145.51 162.69 1147.99 152.88 1156.98 147.98 C 1165.96 143.08 1173.33 153.57 1179.00 159.00 Z"/>
</g>
<g fill="#F4F5EE" fill-opacity="1.00" stroke="None">
<path d="
M 1102.00 200.00 
C 1119.78 207.20 1124.53 184.87 1122.99 172.01 C 1121.46 159.15 1113.38 148.64 1101.69 143.31 C 1090.01 137.97 1073.39 141.48 1065.77 152.77 C 1058.15 164.06 1060.70 181.11 1074.78 186.22 C 1088.86 191.33 1101.90 169.76 1083.00 166.00
C 1088.50 155.01 1103.79 160.42 1108.69 170.31 C 1113.60 180.19 1109.73 192.55 1102.00 200.00 Z"/>
</g>
<g fill="#C1B595" fill-opacity="1.00" stroke="None">
<path d="
M 1192.00 144.00 
C 1190.18 148.48 1188.21 153.99 1187.00 159.00
C 1191.10 152.91 1198.36 144.26 1206.92 146.08 C 1215.49 147.89 1217.78 159.40 1227.00 159.00
C 1224.59 155.20 1220.10 152.23 1217.25 148.75 C 1214.40 145.27 1209.28 140.48 1205.00 141.00 C 1200.72 141.52 1192.13 143.87 1192.00 144.00 Z"/>
</g>
<g fill="#F5F5EE" fill-opacity="1.00" stroke="None">
<path d="
M 1283.00 166.00 
C 1269.48 166.89 1271.08 185.63 1284.00 187.00 C 1296.92 188.37 1304.96 176.48 1304.00 165.00 C 1303.04 153.52 1296.01 145.30 1285.01 141.99 C 1274.00 138.68 1261.98 142.88 1253.75 150.75 C 1245.52 158.63 1241.67 170.28 1243.02 181.98 C 1244.38 193.67 1251.31 205.84 1265.00 200.00
C 1255.70 192.85 1253.21 180.57 1257.70 170.70 C 1262.18 160.82 1277.43 154.56 1283.00 166.00 Z"/>
</g>
<g fill="#CCBDA2" fill-opacity="1.00" stroke="None">
<path d="
M 1430.00 185.00 
C 1444.64 177.87 1444.80 151.08 1428.00 146.00
C 1437.76 156.76 1438.12 173.22 1430.00 185.00 Z"/>
</g>
<g fill="#CBBCA1" fill-opacity="1.00" stroke="None">
<path d="
M 936.00 148.00 
C 921.08 154.26 923.36 178.99 937.00 185.00
C 929.28 173.85 930.13 159.64 936.00 148.00 Z"/>
</g>
<g fill="#BBB192" fill-opacity="1.00" stroke="None">
<path d="
M 1179.00 190.00 
C 1181.18 183.29 1184.10 166.28 1179.00 160.00
C 1179.77 163.92 1180.33 167.81 1180.00 172.00
C 1164.19 158.84 1152.54 183.68 1137.00 183.00
C 1147.56 188.98 1152.57 181.29 1162.93 176.93 C 1173.28 172.56 1181.59 177.25 1179.00 190.00 Z"/>
</g>
<g fill="#B8AD8D" fill-opacity="1.00" stroke="None">
<path d="
M 1186.00 180.00 
C 1200.33 163.60 1215.21 193.91 1231.00 183.00
C 1215.23 182.96 1202.34 159.08 1186.00 172.00
C 1186.13 169.68 1185.83 167.32 1186.00 165.00
C 1184.99 169.94 1185.64 174.67 1186.00 180.00 Z"/>
</g>
<g fill="#CBBA9D" fill-opacity="1.00" stroke="None">
<path d="
M 912.00 170.00 
C 896.15 159.20 878.15 178.37 882.00 195.00
C 858.24 182.96 826.28 178.01 804.00 196.00
C 833.29 184.16 869.34 189.11 892.00 212.00
C 894.58 199.71 906.56 194.08 915.00 186.00
C 909.44 178.39 899.88 186.24 894.00 189.00
C 892.91 178.66 902.42 169.68 912.00 170.00 Z"/>
</g>
<g fill="#CBBA9C" fill-opacity="1.00" stroke="None">
<path d="
M 1488.00 195.00 
C 1492.46 178.38 1474.92 158.82 1459.00 170.00
C 1468.58 169.52 1477.50 178.73 1476.00 189.00
C 1470.12 185.26 1462.13 179.81 1455.00 185.00
C 1461.77 194.14 1476.02 198.67 1478.00 211.00
C 1489.59 202.76 1499.16 196.36 1512.98 191.98 C 1526.79 187.59 1546.71 191.62 1560.00 192.00
C 1538.18 177.75 1509.78 184.85 1488.00 195.00 Z"/>
</g>
<g fill="#CBB99A" fill-opacity="1.00" stroke="None">
<path d="
M 895.00 242.00 
C 894.82 237.16 895.10 232.52 896.00 228.00
C 895.93 228.24 895.13 228.65 895.00 229.00
C 894.03 231.70 886.58 222.71 882.92 220.08 C 879.26 217.45 872.14 212.99 867.31 210.69 C 862.47 208.40 854.87 204.98 850.00 203.00
C 835.23 198.56 817.29 200.81 804.23 208.23 C 791.17 215.65 784.06 227.30 783.00 242.00 C 781.94 256.70 790.40 271.51 805.33 274.67 C 820.26 277.83 839.02 266.46 831.77 249.23 C 824.52 232.00 798.51 245.99 810.00 262.00
C 795.99 258.94 797.13 240.23 803.23 230.23 C 809.33 220.23 821.81 214.70 832.78 213.78 C 843.75 212.85 861.52 214.17 869.75 221.25 C 877.98 228.32 891.18 231.65 895.00 242.00 Z"/>
</g>
<g fill="#CCB99A" fill-opacity="1.00" stroke="None">
<path d="
M 1475.00 229.00 
C 1475.64 233.02 1475.16 237.93 1475.00 242.00
C 1485.23 229.74 1496.09 221.36 1511.32 216.32 C 1526.55 211.29 1549.15 212.84 1561.25 223.75 C 1573.35 234.66 1578.13 257.15 1560.00 262.00
C 1570.86 247.44 1548.30 233.48 1539.93 247.93 C 1531.55 262.37 1544.69 274.52 1558.00 275.00 C 1571.31 275.48 1582.62 266.84 1586.22 254.22 C 1589.82 241.60 1586.93 227.05 1577.25 217.75 C 1567.57 208.46 1558.42 202.86 1545.00 201.00 C 1531.58 199.14 1515.30 203.03 1504.23 209.23 C 1493.16 215.43 1484.36 220.69 1475.00 229.00 Z"/>
</g>
<g fill="#E3DCC8" fill-opacity="1.00" stroke="None">
<path d="
M 895.00 229.00 
C 890.06 228.35 887.11 219.94 882.23 217.77 C 877.35 215.60 871.79 211.89 866.69 209.31 C 861.60 206.72 855.48 204.64 850.00 203.00
C 854.87 204.98 862.47 208.40 867.31 210.69 C 872.14 212.99 879.26 217.45 882.92 220.08 C 886.58 222.71 894.03 231.70 895.00 229.00 Z"/>
</g>
<g fill="#CAB999" fill-opacity="1.00" stroke="None">
<path d="
M 1184.00 206.00 
C 1179.61 210.82 1177.51 217.44 1172.00 222.00
C 1179.63 227.78 1180.01 238.45 1184.00 246.00
C 1185.97 237.13 1189.41 228.69 1194.00 221.00
C 1188.71 217.57 1186.05 211.57 1184.00 206.00 Z"/>
</g>
<g fill="#CCBA9C" fill-opacity="1.00" stroke="None">
<path d="
M 786.00 211.00 
C 553.44 214.82 319.79 216.44 88.00 222.00
C 316.85 225.94 545.82 229.38 775.00 232.00
C 776.33 224.10 780.50 216.97 786.00 211.00 Z"/>
</g>
<g fill="#CBB99B" fill-opacity="1.00" stroke="None">
<path d="
M 2309.00 221.00 
C 2067.94 217.88 1826.91 214.72 1586.00 211.00
C 1589.08 217.98 1594.26 224.37 1596.00 232.00
C 1833.74 228.91 2072.54 227.84 2309.00 221.00 Z"/>
</g>
<g fill="#CBB99A" fill-opacity="1.00" stroke="None">
<path d="
M 1310.00 265.00 
C 1307.64 256.54 1299.88 251.04 1292.75 245.25 C 1285.62 239.46 1269.68 239.35 1260.78 240.78 C 1251.88 242.21 1241.61 248.67 1233.92 251.92 C 1226.23 255.17 1218.84 266.41 1212.00 266.00
C 1211.84 266.27 1211.19 266.68 1211.00 267.00
C 1206.88 273.91 1199.47 274.09 1193.77 279.77 C 1188.07 285.45 1180.18 284.84 1174.30 279.70 C 1168.43 274.56 1161.35 273.06 1157.00 266.00
C 1156.80 265.68 1156.18 265.27 1156.00 265.00
C 1144.24 259.24 1134.61 250.15 1121.07 243.93 C 1107.54 237.70 1088.73 236.58 1075.23 245.23 C 1061.73 253.88 1055.61 268.53 1059.01 283.99 C 1062.41 299.46 1075.75 309.77 1092.00 309.00 C 1108.25 308.23 1121.47 299.37 1121.00 281.00 C 1120.52 262.64 1087.84 266.71 1100.00 285.00
C 1088.58 298.22 1072.17 279.46 1078.08 266.08 C 1083.98 252.69 1098.56 248.36 1111.32 252.68 C 1124.08 257.00 1135.39 261.58 1145.77 269.23 C 1156.15 276.89 1165.82 281.84 1176.00 289.00
C 1166.11 293.81 1160.42 296.66 1149.00 298.00 C 1137.58 299.34 1132.18 289.03 1135.00 279.00
C 1126.10 286.15 1126.94 303.05 1138.78 305.22 C 1150.62 307.39 1160.25 306.37 1170.78 299.78 C 1181.30 293.18 1189.82 295.84 1200.00 301.00 C 1210.17 306.17 1222.39 309.16 1233.30 305.30 C 1244.22 301.44 1241.23 282.31 1232.00 279.00
C 1237.91 288.72 1228.35 301.78 1218.22 298.78 C 1208.10 295.77 1201.67 294.64 1194.00 288.00
C 1200.32 284.33 1206.43 280.34 1212.77 276.77 C 1219.12 273.20 1224.98 268.91 1231.25 265.25 C 1237.53 261.60 1243.09 257.71 1249.93 254.93 C 1256.77 252.14 1269.11 250.72 1276.32 252.68 C 1283.54 254.63 1289.98 260.25 1291.02 267.98 C 1292.07 275.70 1294.08 282.84 1283.69 287.69 C 1273.31 292.55 1269.75 284.61 1270.92 275.08 C 1272.10 265.55 1255.64 267.52 1251.75 272.75 C 1247.86 277.99 1246.14 289.45 1251.23 295.77 C 1256.32 302.09 1260.98 306.02 1268.93 308.07 C 1276.87 310.12 1286.11 308.80 1293.31 305.31 C 1300.50 301.81 1305.09 297.64 1308.08 290.08 C 1311.06 282.51 1311.49 273.32 1310.00 265.00 Z"/>
</g>
<g fill="#E2DAC7" fill-opacity="1.00" stroke="None">
<path d="
M 1214.00 263.00 
C 1213.44 263.88 1212.56 265.03 1212.00 266.00
C 1218.84 266.41 1226.23 255.17 1233.92 251.92 C 1241.61 248.67 1251.88 242.21 1260.78 240.78 C 1269.68 239.35 1285.62 239.46 1292.75 245.25 C 1299.88 251.04 1307.64 256.54 1310.00 265.00
C 1309.24 255.91 1298.00 252.15 1296.00 244.00
C 1287.58 242.04 1274.11 237.14 1264.01 239.01 C 1253.90 240.87 1244.24 243.95 1236.23 249.23 C 1228.22 254.51 1220.57 259.13 1214.00 263.00 Z"/>
</g>
<g fill="#CCBDA1" fill-opacity="1.00" stroke="None">
<path d="
M 1059.00 247.00 
C 1032.84 257.16 1012.79 274.09 987.68 287.68 C 962.57 301.27 925.53 304.87 903.00 283.00
C 938.86 324.65 996.07 292.58 1031.00 268.00
C 1028.52 273.81 1020.04 281.69 1019.00 288.00 C 1017.96 294.31 1014.59 310.50 1024.98 310.97 C 1035.36 311.45 1027.98 294.19 1029.01 288.01 C 1030.04 281.83 1034.35 272.04 1039.00 267.00
C 1038.39 277.84 1038.87 294.41 1046.70 303.30 C 1054.53 312.19 1062.43 321.83 1074.00 320.00
C 1059.76 314.93 1050.21 304.99 1046.00 290.00 C 1041.78 275.01 1050.30 258.82 1059.00 247.00 Z"/>
</g>
<g fill="#CCBDA1" fill-opacity="1.00" stroke="None">
<path d="
M 1462.00 287.00 
C 1438.76 305.93 1403.89 299.38 1380.08 286.92 C 1356.27 274.46 1337.70 258.72 1313.00 249.00
C 1321.91 261.19 1327.43 279.35 1321.92 293.92 C 1316.42 308.50 1305.90 316.12 1292.00 321.00
C 1304.19 321.96 1314.68 314.00 1322.75 303.75 C 1330.81 293.49 1330.70 276.71 1329.00 265.00
C 1334.64 270.52 1339.16 280.87 1340.00 288.00 C 1340.84 295.13 1332.03 310.54 1342.99 311.99 C 1353.95 313.44 1352.93 295.04 1350.32 288.68 C 1347.72 282.32 1343.52 273.25 1338.00 268.00
C 1372.46 291.05 1425.45 322.49 1462.00 287.00 Z"/>
</g>
<g fill="#ABA88C" fill-opacity="1.00" stroke="None">
<path d="
M 1211.00 267.00 
C 1203.73 271.70 1196.77 277.41 1189.00 281.00
C 1191.56 277.71 1194.16 274.11 1195.00 270.00
C 1191.59 281.07 1181.93 286.67 1175.00 275.00
C 1175.71 277.40 1177.68 278.91 1179.00 281.00
C 1171.14 277.16 1164.09 271.52 1157.00 266.00
C 1161.35 273.06 1168.43 274.56 1174.30 279.70 C 1180.18 284.84 1188.07 285.45 1193.77 279.77 C 1199.47 274.09 1206.88 273.91 1211.00 267.00 Z"/>
</g>
<g fill="#CDBDA1" fill-opacity="1.00" stroke="None">
<path d="
M 1175.00 307.00 
C 1162.43 320.03 1140.45 328.37 1125.00 316.00
C 1129.07 346.85 1174.39 332.11 1175.00 307.00 Z"/>
</g>
<g fill="#CBBA9D" fill-opacity="1.00" stroke="None">
<path d="
M 1241.00 319.00 
C 1225.22 327.70 1206.53 320.18 1194.00 309.00
C 1195.08 331.16 1236.08 346.05 1241.00 319.00 Z"/>
</g>
<g fill="#CBB99A" fill-opacity="1.00" stroke="None">
<path d="
M 1183.00 312.00 
C 1180.74 320.37 1178.29 325.27 1176.00 334.00 C 1173.70 342.72 1175.03 349.51 1178.23 358.77 C 1181.43 368.03 1187.87 364.33 1190.25 356.25 C 1192.62 348.16 1195.11 339.32 1191.32 331.68 C 1187.53 324.04 1189.67 316.49 1183.00 312.00 Z"/>
</g>
</svg>